<svg width="13" height="21" viewBox="0 0 13 21" fill="none" xmlns="http://www.w3.org/2000/svg">
<path fill-rule="evenodd" clip-rule="evenodd" d="M7.26723 19.8333C7.27972 20.0018 7.3553 20.1582 7.47733 20.268C7.59936 20.3779 7.75785 20.4322 7.91794 20.4191C8.07802 20.4059 8.22659 20.3264 8.33095 20.1979L11.9634 15.7371C11.9838 15.7045 12.002 15.6704 12.0179 15.6351L12.0663 15.5586C12.1236 15.4072 12.1236 15.2385 12.0663 15.0871L12.0179 15.0106C12.002 14.9753 11.9838 14.9412 11.9634 14.9086L8.33095 10.4478C8.11362 10.1803 7.73144 10.1489 7.47734 10.3777C7.22323 10.6064 7.19341 11.0087 7.41074 11.2762L10.1895 14.6856L0.606013 14.6856C0.271659 14.6856 0.000611209 14.9709 0.000611194 15.3228C0.00061118 15.6748 0.271659 15.9601 0.606013 15.9601L10.1895 15.9601L7.41074 19.3695C7.30637 19.4979 7.25475 19.6648 7.26723 19.8333ZM0.145884 5.51239L3.7783 9.97326C3.99563 10.2407 4.37781 10.2721 4.63192 10.0434C4.88603 9.81459 4.91584 9.4123 4.69851 9.14481L1.91971 5.73544L11.5032 5.73544C11.8376 5.73544 12.1086 5.45012 12.1086 5.09817C12.1086 4.74622 11.8376 4.46091 11.5032 4.46091L1.91971 4.46091L4.69851 1.05153C4.91584 0.784049 4.88603 0.381756 4.63192 0.152987C4.37781 -0.0757818 3.99563 -0.0443973 3.7783 0.223086L0.145884 4.68395C0.125445 4.71653 0.107236 4.75061 0.0913976 4.78591L0.0429653 4.86238C-0.014321 5.01379 -0.014321 5.18255 0.0429652 5.33396L0.0913976 5.41043C0.107236 5.44574 0.125445 5.47981 0.145884 5.51239Z" fill="black"/>
</svg>
