<svg width="16" height="16" viewBox="0 0 16 16" fill="none" xmlns="http://www.w3.org/2000/svg">
<!-- <path fill-rule="evenodd" clip-rule="evenodd" d="M10.8735 9.9335L14.4735 13.5268C14.5997 13.652 14.6707 13.8224 14.6707 14.0002C14.6707 14.1779 14.5997 14.3483 14.4735 14.4735C14.3483 14.5997 14.1779 14.6707 14.0002 14.6707C13.8224 14.6707 13.652 14.5997 13.5268 14.4735L9.9335 10.8735C9.0018 11.6048 7.85127 12.0016 6.66683 12.0002C3.72131 12.0002 1.3335 9.61235 1.3335 6.66683C1.3335 3.72131 3.72131 1.3335 6.66683 1.3335C9.61235 1.3335 12.0002 3.72131 12.0002 6.66683C12.0016 7.85127 11.6048 9.0018 10.8735 9.9335ZM6.66683 2.66683C4.45769 2.66683 2.66683 4.45769 2.66683 6.66683C2.66683 8.87597 4.45769 10.6668 6.66683 10.6668C8.87597 10.6668 10.6668 8.87597 10.6668 6.66683C10.6668 4.45769 8.87597 2.66683 6.66683 2.66683Z" fill="#231F20"/> -->

<path fill-rule="evenodd" clip-rule="evenodd" d="M10.8735 9.9335L14.4735 13.5268C14.5997 13.652 14.6707 13.8224 14.6707 14.0002C14.6707 14.1779 14.5997 14.3483 14.4735 14.4735C14.3483 14.5997 14.1779 14.6707 14.0002 14.6707C13.8224 14.6707 13.652 14.5997 13.5268 14.4735L9.9335 10.8735C9.0018 11.6048 7.85127 12.0016 6.66683 12.0002C3.72131 12.0002 1.3335 9.61235 1.3335 6.66683C1.3335 3.72131 3.72131 1.3335 6.66683 1.3335C9.61235 1.3335 12.0002 3.72131 12.0002 6.66683C12.0016 7.85127 11.6048 9.0018 10.8735 9.9335ZM6.66683 2.66683C4.45769 2.66683 2.66683 4.45769 2.66683 6.66683C2.66683 8.87597 4.45769 10.6668 6.66683 10.6668C8.87597 10.6668 10.6668 8.87597 10.6668 6.66683C10.6668 4.45769 8.87597 2.66683 6.66683 2.66683Z" fill="#FFFFFF"/>
</svg>
