<svg width="16" height="16" viewBox="0 0 16 16" fill="none" xmlns="http://www.w3.org/2000/svg">
<path fill-rule="evenodd" clip-rule="evenodd" d="M4.66642 1.37354H11.3331C12.4609 1.39904 13.3554 2.33232 13.3331 3.4602V13.2469C13.3359 13.7908 13.0205 14.286 12.5264 14.5135C12.3581 14.5868 12.1767 14.6253 11.9931 14.6269C11.6688 14.6249 11.3571 14.5012 11.1198 14.2802L7.99976 11.4402L4.87976 14.2802C4.49533 14.6232 3.94768 14.7141 3.47309 14.5135C2.97906 14.286 2.66363 13.7908 2.66642 13.2469V3.4602C2.64409 2.33232 3.53861 1.39904 4.66642 1.37354ZM8.88643 10.4535L11.9998 13.2935V3.4602C12.0189 3.06975 11.723 2.73536 11.3331 2.70687H4.66642C4.27654 2.73536 3.98062 3.06975 3.99976 3.4602V13.2469L7.08642 10.4535C7.5959 9.98743 8.37695 9.98743 8.88643 10.4535Z" fill="#FFFFFF"/>
</svg>
