<svg width="95" height="25" viewBox="0 0 95 25" fill="none" xmlns="http://www.w3.org/2000/svg">
<path d="M0.789154 24.1705V0.608032H11.0057C12.8005 0.608032 14.3077 0.84964 15.5272 1.33286C16.7544 1.81607 17.6787 2.49871 18.2999 3.38077C18.9289 4.26282 19.2434 5.30212 19.2434 6.49865C19.2434 7.36537 19.0516 8.15539 18.6681 8.86871C18.2923 9.58203 17.763 10.1803 17.0804 10.6635C16.3978 11.1391 15.6001 11.4689 14.6873 11.6529V11.8831C15.6998 11.9214 16.6202 12.1783 17.4486 12.6539C18.2769 13.1218 18.9366 13.7699 19.4275 14.5983C19.9183 15.419 20.1638 16.3854 20.1638 17.4976C20.1638 18.7861 19.8263 19.9328 19.1513 20.9376C18.484 21.9424 17.5329 22.7324 16.2981 23.3076C15.0632 23.8829 13.5905 24.1705 11.8801 24.1705H0.789154ZM7.186 19.0622H10.1773C11.2511 19.0622 12.0565 18.8628 12.5934 18.464C13.1303 18.0575 13.3988 17.4592 13.3988 16.6692C13.3988 16.1169 13.2722 15.6491 13.0191 15.2656C12.766 14.8821 12.4055 14.5906 11.9376 14.3912C11.4774 14.1917 10.9213 14.092 10.2694 14.092H7.186V19.0622ZM7.186 10.1343H9.80917C10.3691 10.1343 10.8638 10.0461 11.2933 9.86966C11.7229 9.69324 12.0565 9.44013 12.2943 9.11032C12.5397 8.77283 12.6624 8.36248 12.6624 7.87927C12.6624 7.15061 12.4017 6.59453 11.8801 6.21103C11.3585 5.81985 10.6989 5.62427 9.90121 5.62427H7.186V10.1343Z" fill="white"/>
<path d="M46.0664 12.3893C46.0664 15.0124 45.5563 17.2253 44.5362 19.0277C43.5161 20.8225 42.1393 22.184 40.4059 23.112C38.6725 24.0325 36.7396 24.4927 34.6073 24.4927C32.4597 24.4927 30.5192 24.0286 28.7857 23.1005C27.0599 22.1648 25.687 20.7995 24.6669 19.0047C23.6544 17.2022 23.1482 14.9971 23.1482 12.3893C23.1482 9.76611 23.6544 7.55713 24.6669 5.76233C25.687 3.95986 27.0599 2.59842 28.7857 1.67801C30.5192 0.749929 32.4597 0.285889 34.6073 0.285889C36.7396 0.285889 38.6725 0.749929 40.4059 1.67801C42.1393 2.59842 43.5161 3.95986 44.5362 5.76233C45.5563 7.55713 46.0664 9.76611 46.0664 12.3893ZM39.4855 12.3893C39.4855 10.978 39.2976 9.78912 38.9217 8.82269C38.5536 7.84859 38.0052 7.11226 37.2765 6.6137C36.5555 6.10748 35.6658 5.85437 34.6073 5.85437C33.5488 5.85437 32.6553 6.10748 31.9266 6.6137C31.2056 7.11226 30.6572 7.84859 30.2814 8.82269C29.9132 9.78912 29.7291 10.978 29.7291 12.3893C29.7291 13.8006 29.9132 14.9933 30.2814 15.9674C30.6572 16.9338 31.2056 17.6701 31.9266 18.1764C32.6553 18.6749 33.5488 18.9242 34.6073 18.9242C35.6658 18.9242 36.5555 18.6749 37.2765 18.1764C38.0052 17.6701 38.5536 16.9338 38.9217 15.9674C39.2976 14.9933 39.4855 13.8006 39.4855 12.3893Z" fill="white"/>
<path d="M70.2231 0.608032V24.1705H64.8848L56.371 11.791H56.2329V24.1705H49.8361V0.608032H55.2665L63.6422 12.9415H63.8263V0.608032H70.2231Z" fill="white"/>
<path d="M83.125 24.1705H74.0589V0.608032H83.0329C85.4567 0.608032 87.5506 1.07974 89.3147 2.02316C91.0865 2.95891 92.4518 4.30885 93.4105 6.07296C94.377 7.82941 94.8602 9.93485 94.8602 12.3893C94.8602 14.8437 94.3808 16.953 93.4221 18.7171C92.4633 20.4735 91.1057 21.8235 89.3492 22.7669C87.5928 23.7026 85.518 24.1705 83.125 24.1705ZM80.4558 18.7401H82.8949C84.0607 18.7401 85.054 18.5522 85.8747 18.1764C86.7031 17.8005 87.332 17.1524 87.7615 16.232C88.1987 15.3116 88.4173 14.0307 88.4173 12.3893C88.4173 10.7479 88.1949 9.46698 87.75 8.54657C87.3128 7.62616 86.6685 6.97803 85.8172 6.6022C84.9735 6.22637 83.938 6.03845 82.7108 6.03845H80.4558V18.7401Z" fill="white"/>
</svg>
