<svg class="D" width="21" height="25" viewBox="0 0 21 25" fill="none" xmlns="http://www.w3.org/2000/svg">
<path d="M9.00866 24.0085H0V0.769897H8.9172C11.3256 0.769897 13.4063 1.23512 15.1592 2.16558C16.9198 3.08846 18.2764 4.41984 19.2291 6.15971C20.1894 7.89202 20.6696 9.96851 20.6696 12.3892C20.6696 14.8099 20.1933 16.8902 19.2406 18.63C18.2879 20.3623 16.9389 21.6937 15.1935 22.6242C13.4482 23.5471 11.3866 24.0085 9.00866 24.0085ZM6.35636 18.6527H8.78001C9.93848 18.6527 10.9255 18.4674 11.741 18.0967C12.5641 17.7261 13.1891 17.0868 13.6159 16.1791C14.0503 15.2713 14.2675 14.008 14.2675 12.3892C14.2675 10.7704 14.0465 9.50707 13.6044 8.59931C13.17 7.69155 12.5298 7.05234 11.6838 6.68167C10.8454 6.311 9.81654 6.12567 8.59709 6.12567H6.35636V18.6527Z" fill="white"/>
</svg>
