<svg width="14" height="12" viewBox="0 0 14 12" fill="none" xmlns="http://www.w3.org/2000/svg">
<path d="M0.334636 5.99999V5.99999C0.336653 5.91578 0.352415 5.83246 0.381302 5.75333C0.396725 5.72516 0.41457 5.69839 0.434635 5.67333C0.452077 5.63639 0.472128 5.60074 0.494636 5.56666L4.49464 0.899992C4.64945 0.718977 4.88908 0.634306 5.12325 0.677873C5.35742 0.721439 5.55056 0.886625 5.62991 1.11121C5.70927 1.33579 5.66278 1.58564 5.50797 1.76666L2.44797 5.33333H13.0013C13.3695 5.33333 13.668 5.6318 13.668 5.99999C13.668 6.36818 13.3695 6.66666 13.0013 6.66666H2.44797L5.50797 10.2333C5.66278 10.4143 5.70927 10.6642 5.62991 10.8888C5.55056 11.1134 5.35742 11.2785 5.12325 11.3221C4.88908 11.3657 4.64945 11.281 4.49464 11.1L0.494636 6.43333C0.472128 6.39924 0.452077 6.36359 0.434635 6.32666C0.41457 6.30159 0.396725 6.27482 0.381302 6.24666C0.352415 6.16753 0.336653 6.08421 0.334636 5.99999Z" fill="white"/>
</svg>
