<svg width="16" height="17" viewBox="0 0 16 17" fill="none" xmlns="http://www.w3.org/2000/svg">
<path d="M14.6654 8.50013C14.6633 8.58434 14.6476 8.66767 14.6187 8.7468C14.6033 8.77496 14.5854 8.80173 14.5654 8.8268C14.5479 8.86373 14.5279 8.89938 14.5054 8.93346L10.5054 13.6001C10.3505 13.7811 10.1109 13.8658 9.87675 13.8222C9.64258 13.7787 9.44944 13.6135 9.37009 13.3889C9.29073 13.1643 9.33722 12.9145 9.49203 12.7335L12.552 9.1668H1.9987C1.63051 9.1668 1.33203 8.86832 1.33203 8.50013C1.33203 8.13194 1.63051 7.83346 1.9987 7.83346H12.552L9.49203 4.2668C9.33722 4.08578 9.29073 3.83592 9.37009 3.61134C9.44944 3.38676 9.64258 3.22158 9.87675 3.17801C10.1109 3.13444 10.3505 3.21912 10.5054 3.40013L14.5054 8.0668C14.5279 8.10088 14.5479 8.13653 14.5654 8.17346C14.5854 8.19853 14.6033 8.2253 14.6187 8.25346C14.6476 8.33259 14.6633 8.41591 14.6654 8.50013Z" fill="white"/>
</svg>
