<svg width="33" height="33" viewBox="0 0 33 33" fill="none" xmlns="http://www.w3.org/2000/svg">
<circle cx="16.5" cy="16.5" r="16.5" fill="#181642"/>
<path d="M15.1252 11.4428C15.2602 11.5582 15.3438 11.7226 15.3576 11.8998C15.3715 12.0769 15.3143 12.2523 15.1989 12.3873L12.1241 15.9711L22.7282 15.9711C23.0982 15.9711 23.3981 16.271 23.3981 16.641C23.3981 17.0109 23.0982 17.3109 22.7282 17.3109L12.1241 17.3109L15.1989 20.8947C15.4393 21.1758 15.4063 21.5987 15.1252 21.8392C14.844 22.0797 14.4211 22.0467 14.1806 21.7655L10.1614 17.0764C10.1388 17.0421 10.1187 17.0063 10.1011 16.9692L10.0475 16.8888C9.98415 16.7297 9.98415 16.5523 10.0475 16.3931L10.1011 16.3127C10.1187 16.2756 10.1388 16.2398 10.1614 16.2056L14.1806 11.5165C14.2961 11.3814 14.4605 11.2978 14.6376 11.284C14.8148 11.2702 14.9901 11.3273 15.1252 11.4428Z" fill="white"/>
</svg>
