<svg width="25" height="25" viewBox="0 0 25 25" fill="none" xmlns="http://www.w3.org/2000/svg">
<path d="M18.7199 13.2043C19.0406 13.2043 19.2036 13.6948 18.9801 13.9852L14.6849 19.558C14.4614 19.8484 14.0961 19.8517 13.8675 19.568C13.6388 19.2842 13.6361 18.8204 13.8597 18.5302L16.83 14.6726L4.67521 14.6728C4.36237 14.6728 4.09432 14.3626 4.08374 13.9654C4.07329 13.5484 4.3361 13.2046 4.662 13.2046L18.7199 13.2043ZM19.0774 10.645C19.067 11.0421 18.7988 11.3524 18.486 11.3524L4.44902 11.3524C4.12573 11.3524 3.96269 10.8585 4.18882 10.5649L8.4814 4.99861C8.70491 4.70824 9.07025 4.70493 9.29886 4.98867C9.52758 5.2724 9.53019 5.73619 9.30669 6.02641L6.33121 9.88401L18.499 9.88401C18.8275 9.88401 19.0907 10.2279 19.0774 10.645Z" fill="white" stroke="white" stroke-width="0.4"/>
</svg>
