<svg width="25" height="25" viewBox="0 0 25 25" fill="none" xmlns="http://www.w3.org/2000/svg">
<path fill-rule="evenodd" clip-rule="evenodd" d="M17.0834 9.27832C17.9118 9.27832 18.5834 8.60674 18.5834 7.77832C18.5834 6.94989 17.9118 6.27832 17.0834 6.27832C16.2549 6.27832 15.5834 6.94989 15.5834 7.77832C15.5834 8.60674 16.2549 9.27832 17.0834 9.27832ZM17.0834 10.7783C18.7402 10.7783 20.0834 9.43517 20.0834 7.77832C20.0834 6.12146 18.7402 4.77832 17.0834 4.77832C15.4265 4.77832 14.0834 6.12146 14.0834 7.77832C14.0834 9.43517 15.4265 10.7783 17.0834 10.7783Z" fill="white"/>
<path fill-rule="evenodd" clip-rule="evenodd" d="M17.0834 19.2783C17.9118 19.2783 18.5834 18.6067 18.5834 17.7783C18.5834 16.9499 17.9118 16.2783 17.0834 16.2783C16.2549 16.2783 15.5834 16.9499 15.5834 17.7783C15.5834 18.6067 16.2549 19.2783 17.0834 19.2783ZM17.0834 20.7783C18.7402 20.7783 20.0834 19.4352 20.0834 17.7783C20.0834 16.1215 18.7402 14.7783 17.0834 14.7783C15.4265 14.7783 14.0834 16.1215 14.0834 17.7783C14.0834 19.4352 15.4265 20.7783 17.0834 20.7783Z" fill="white"/>
<path fill-rule="evenodd" clip-rule="evenodd" d="M7.08337 9.27832C7.9118 9.27832 8.58337 8.60674 8.58337 7.77832C8.58337 6.94989 7.9118 6.27832 7.08337 6.27832C6.25494 6.27832 5.58337 6.94989 5.58337 7.77832C5.58337 8.60674 6.25494 9.27832 7.08337 9.27832ZM7.08337 10.7783C8.74022 10.7783 10.0834 9.43517 10.0834 7.77832C10.0834 6.12146 8.74022 4.77832 7.08337 4.77832C5.42652 4.77832 4.08337 6.12146 4.08337 7.77832C4.08337 9.43517 5.42652 10.7783 7.08337 10.7783Z" fill="white"/>
<path fill-rule="evenodd" clip-rule="evenodd" d="M7.08337 19.2783C7.9118 19.2783 8.58337 18.6067 8.58337 17.7783C8.58337 16.9499 7.9118 16.2783 7.08337 16.2783C6.25494 16.2783 5.58337 16.9499 5.58337 17.7783C5.58337 18.6067 6.25494 19.2783 7.08337 19.2783ZM7.08337 20.7783C8.74022 20.7783 10.0834 19.4352 10.0834 17.7783C10.0834 16.1215 8.74022 14.7783 7.08337 14.7783C5.42652 14.7783 4.08337 16.1215 4.08337 17.7783C4.08337 19.4352 5.42652 20.7783 7.08337 20.7783Z" fill="white"/>
<path d="M6.5835 10.2783H8.08349V15.2783H6.5835L6.5835 10.2783Z" fill="white"/>
<path d="M16.0833 10.2783H17.5833V15.2783H16.0833V10.2783Z" fill="white"/>
<path d="M9.5833 18.7783V17.2783H14.5833V18.7783H9.5833Z" fill="white"/>
<path d="M9.5833 8.77832V7.27832H14.5833V8.77832H9.5833Z" fill="white"/>
</svg>
