<svg width="25" height="24" viewBox="0 0 25 24" fill="none" xmlns="http://www.w3.org/2000/svg">
<path d="M20.7634 18.628C20.9147 18.7782 20.9999 18.9826 20.9999 19.1958C20.9999 19.409 20.9147 19.6133 20.7634 19.7635C20.6132 19.9149 20.4088 20 20.1956 20C19.9824 20 19.7781 19.9149 19.6279 19.7635L12.9992 13.1268L6.37049 19.7635C6.22036 19.9149 6.01598 20 5.80278 20C5.58957 20 5.3852 19.9149 5.23506 19.7635C5.08368 19.6133 4.99854 19.409 4.99854 19.1958C4.99854 18.9826 5.08368 18.7782 5.23506 18.628L11.8718 11.9993L5.23506 5.37061C5.03223 5.16779 4.95302 4.87216 5.02726 4.59509C5.1015 4.31803 5.31791 4.10162 5.59498 4.02738C5.87204 3.95314 6.16767 4.03235 6.37049 4.23518L12.9992 10.8719L19.6279 4.23518C19.9415 3.92163 20.4498 3.92163 20.7634 4.23518C21.0769 4.54872 21.0769 5.05707 20.7634 5.37061L14.1266 11.9993L20.7634 18.628Z" fill="white"/>
</svg>
