<svg width="25" height="25" viewBox="0 0 25 25" fill="none" xmlns="http://www.w3.org/2000/svg">
<path fill-rule="evenodd" clip-rule="evenodd" d="M10.9019 9.50006V6.49278C10.9018 5.46074 10.0623 4.62134 9.03037 4.62134L6.79771 4.62134C5.7658 4.62134 4.92627 5.46083 4.92627 6.49278L4.92627 9.50006C4.92627 10.532 5.76576 11.3715 6.79771 11.3715H9.0305C10.0624 11.3715 10.9019 10.532 10.9019 9.50006ZM10.8076 9.50006V6.49278C10.8075 5.51282 10.0102 4.71564 9.03037 4.71564L6.79771 4.71564C5.89151 4.71564 5.14143 5.39759 5.03382 6.27524C5.14156 5.39773 5.89157 4.71593 6.79767 4.71593L9.03034 4.71593H9.03037C10.0102 4.71593 10.8075 5.51311 10.8076 6.49307V9.50036C10.8076 9.57207 10.8033 9.64281 10.795 9.71233C10.8034 9.64272 10.8076 9.57188 10.8076 9.50006ZM9.80189 9.50006C9.80189 9.92538 9.45569 10.2716 9.03037 10.2716L6.79771 10.2715C6.37239 10.2715 6.02619 9.92526 6.02619 9.49994L6.02619 6.49265C6.02619 6.06733 6.37239 5.72113 6.79771 5.72113L9.0305 5.72113C9.45582 5.72113 9.80202 6.06733 9.80202 6.49265L9.80189 9.50006ZM9.8902 9.6022C9.83951 10.0317 9.47323 10.3659 9.03037 10.3659L6.79771 10.3658C6.32031 10.3658 5.93189 9.97734 5.93189 9.49994L5.93189 6.49265C5.93189 6.45633 5.93414 6.42054 5.9385 6.38538C5.93411 6.42063 5.93185 6.45653 5.93185 6.49294L5.93185 9.50023C5.93185 9.97763 6.32027 10.366 6.79767 10.366L9.03034 10.3662C9.47329 10.3662 9.83964 10.0318 9.8902 9.6022ZM9.03034 11.9607H6.79767C5.88201 11.9607 5.12575 12.6569 5.03062 13.5478C5.12559 12.6568 5.88193 11.9603 6.79771 11.9603H9.03037C10.0102 11.9603 10.8075 12.7576 10.8076 13.7375L10.8076 18.7497C10.8076 18.7993 10.8056 18.8484 10.8016 18.897C10.8056 18.8485 10.8076 18.7995 10.8076 18.7501L10.8076 13.7378C10.8075 12.758 10.0102 11.9607 9.03037 11.9607H9.03034ZM9.88389 18.8957C9.81441 19.304 9.45809 19.6158 9.03034 19.6158L6.79767 19.6157C6.32027 19.6157 5.93185 19.2273 5.93185 18.7499V13.7376C5.93185 13.7115 5.93302 13.6857 5.93529 13.6601C5.93304 13.6855 5.93189 13.7113 5.93189 13.7373V18.7495C5.93189 19.2269 6.32031 19.6153 6.79771 19.6153L9.03037 19.6155C9.45801 19.6155 9.81427 19.3038 9.88389 18.8957ZM10.9019 18.7497L10.9019 13.7375C10.9018 12.7056 10.0623 11.866 9.03037 11.866H6.79771C5.7658 11.866 4.92627 12.7055 4.92627 13.7375L4.92627 18.7497C4.92627 19.7816 5.76576 20.6212 6.79771 20.6212H9.0305C10.0624 20.6212 10.9019 19.7817 10.9019 18.7497ZM9.80189 18.7496C9.80189 19.175 9.45569 19.5212 9.03037 19.5212L6.79771 19.521C6.37239 19.521 6.02619 19.1748 6.02619 18.7495V13.7373C6.02619 13.3119 6.37239 12.9658 6.79771 12.9658H9.0305C9.45582 12.9658 9.80202 13.3119 9.80202 13.7373L9.80189 18.7496ZM14.2946 20.3144C14.5453 20.4498 14.8321 20.5268 15.1364 20.5268L17.3691 20.5266C18.3489 20.5266 19.1463 19.7294 19.1463 18.7495V15.7422C19.1463 15.0901 18.7931 14.5189 18.2681 14.2098C18.7929 14.519 19.1458 15.0901 19.1458 15.742V18.7493C19.1458 19.7291 18.3485 20.5264 17.3687 20.5264L15.136 20.5265C14.8318 20.5265 14.5452 20.4497 14.2946 20.3144ZM14.7262 19.5118C14.4552 19.3653 14.2706 19.0786 14.2706 18.7495V15.7422C14.2706 15.2648 14.659 14.8764 15.1364 14.8764L17.3691 14.8765C17.5144 14.8765 17.6515 14.9125 17.7718 14.976C17.6514 14.9123 17.5142 14.8763 17.3687 14.8763L15.136 14.8762C14.6586 14.8762 14.2702 15.2646 14.2702 15.742V18.7493C14.2702 19.0785 14.4549 19.3654 14.7262 19.5118ZM17.4634 13.8732V13.8709H15.1364C14.1045 13.8709 13.265 14.7104 13.265 15.7423V18.7496C13.265 19.7815 14.1045 20.6211 15.1364 20.6211L17.3691 20.6209C18.401 20.6209 19.2406 19.7814 19.2406 18.7495V15.7422C19.2406 14.7419 18.4517 13.9225 17.4634 13.8732ZM18.1406 18.7496C18.1406 19.1749 17.7944 19.5211 17.3691 19.5211L15.1365 19.521C14.7111 19.521 14.3649 19.1748 14.3649 18.7495V15.7422C14.3649 15.3169 14.7111 14.9707 15.1364 14.9707L17.3691 14.9708C17.7944 14.9708 18.1406 15.317 18.1406 15.7423V18.7496ZM17.3687 4.71593H15.136C14.7609 4.71593 14.4126 4.83277 14.1255 5.03196C14.4127 4.83259 14.7612 4.71564 15.1364 4.71564H17.3691L17.3715 4.71564C18.3503 4.71691 19.1463 5.5136 19.1463 6.49265V11.5049C19.1463 12.0932 18.8589 12.6156 18.4172 12.9392C18.8587 12.6156 19.1458 12.0933 19.1458 11.5052V6.49294C19.1458 5.51311 18.3486 4.71593 17.3687 4.71593V4.71593ZM17.8583 12.219C17.719 12.3149 17.5503 12.3711 17.3687 12.3711H15.136C14.6586 12.3711 14.2702 11.9827 14.2702 11.5053L14.2702 6.493C14.2702 6.20209 14.4145 5.94421 14.6352 5.78714C14.4147 5.94424 14.2706 6.20198 14.2706 6.49271L14.2706 11.505C14.2706 11.9824 14.659 12.3708 15.1364 12.3708H17.3691C17.5505 12.3708 17.7191 12.3147 17.8583 12.219ZM17.4634 4.62369V4.62134H15.1364C14.1045 4.62134 13.265 5.46083 13.265 6.49278L13.265 11.505C13.265 12.5369 14.1045 13.3765 15.1364 13.3765L17.3691 13.3763C18.401 13.3763 19.2406 12.5368 19.2406 11.5049V6.49265C19.2406 5.49235 18.4517 4.67296 17.4634 4.62369ZM18.1406 11.505C18.1406 11.9303 17.7944 12.2765 17.3691 12.2765H15.1364C14.7111 12.2765 14.3649 11.9303 14.3649 11.505L14.3649 6.49271C14.3649 6.06739 14.7111 5.7212 15.1364 5.72119L17.3691 5.72132C17.7944 5.72132 18.1406 6.06752 18.1406 6.49284V11.505Z" fill="white"/>
</svg>
