<svg width="18" height="20" viewBox="0 0 18 20" fill="none" xmlns="http://www.w3.org/2000/svg">
<path d="M8.40137 15H4.79199V4.81818H8.4312C9.45534 4.81818 10.337 5.02202 11.0761 5.42969C11.8152 5.83404 12.3836 6.41572 12.7813 7.17472C13.1824 7.93371 13.3829 8.84186 13.3829 9.89915C13.3829 10.9598 13.1824 11.8712 12.7813 12.6335C12.3836 13.3958 11.8119 13.9808 11.0661 14.3885C10.3237 14.7962 9.43546 15 8.40137 15ZM6.94469 13.1555H8.31188C8.94824 13.1555 9.48352 13.0429 9.9177 12.8175C10.3552 12.5888 10.6833 12.2358 10.9021 11.7585C11.1241 11.2779 11.2352 10.6581 11.2352 9.89915C11.2352 9.14678 11.1241 8.53196 10.9021 8.05469C10.6833 7.57741 10.3569 7.22609 9.92267 7.00071C9.48849 6.77533 8.95321 6.66264 8.31685 6.66264H6.94469V13.1555Z" fill="white"/>
<path d="M7.00763 14H9.0742V16H7.00763V14Z" fill="white"/>
<path d="M7.00763 4H9.0742V6H7.00763V4Z" fill="white"/>
</svg>
