<svg width="30" height="29" viewBox="0 0 30 29" fill="none" xmlns="http://www.w3.org/2000/svg">
<path fill-rule="evenodd" clip-rule="evenodd" d="M13.9062 18.911H12.0984V10.6556H15.049C15.8794 10.6556 16.5943 10.8208 17.1935 11.1514C17.7928 11.4792 18.2537 11.9509 18.5761 12.5663C18.9013 13.1817 19.0639 13.918 19.0639 14.7752C19.0639 15.6352 18.9013 16.3742 18.5761 16.9923C18.2537 17.6103 17.7901 18.0847 17.1855 18.4152C16.7234 18.6689 16.1918 18.8252 15.5905 18.8842V19.6813H13.9062V18.911ZM13.8438 17.4155H14.9523C15.4683 17.4155 15.9023 17.3242 16.2543 17.1414C16.609 16.956 16.8751 16.6698 17.0524 16.2828C17.2325 15.8932 17.3225 15.3906 17.3225 14.7752C17.3225 14.1652 17.2325 13.6667 17.0524 13.2797C16.8751 12.8928 16.6104 12.6079 16.2583 12.4252C15.9063 12.2424 15.4723 12.1511 14.9563 12.1511H13.8438V17.4155Z" fill="white"/>
<path fill-rule="evenodd" clip-rule="evenodd" d="M15.1641 4.00635C9.54184 4.00635 4.96875 8.57956 4.96875 14.2017C4.96875 19.8239 9.54196 24.3971 15.1641 24.3971C20.7863 24.3971 25.3595 19.8239 25.3595 14.2017C25.3595 8.57944 20.7863 4.00635 15.1641 4.00635ZM15.1641 22.643C10.5098 22.643 6.72228 18.8558 6.72228 14.2017C6.72228 9.54765 10.5096 5.76048 15.1641 5.76048C19.8186 5.76048 23.6054 9.54761 23.6054 14.2017C23.6054 18.8558 19.8182 22.643 15.1641 22.643Z" fill="white"/>
<path d="M13.9082 9.73389H15.5924V11.2602H13.9082V9.73389Z" fill="white"/>
</svg>
