<svg width="25" height="24" viewBox="0 0 25 24" fill="none" xmlns="http://www.w3.org/2000/svg">
<path d="M5.1381 12.4399L8.06845 9.47822C8.20911 9.33606 8.27553 9.1702 8.26772 8.98066C8.2599 8.79111 8.18567 8.62526 8.04501 8.4831C7.90435 8.34094 7.73635 8.26986 7.54099 8.26986C7.34563 8.26986 7.17763 8.34094 7.03697 8.4831L3.61432 11.9423C3.47366 12.0845 3.40333 12.2503 3.40333 12.4399C3.40333 12.6294 3.47366 12.7953 3.61432 12.9374L7.03697 16.3966C7.17763 16.5388 7.34563 16.6099 7.54099 16.6099C7.73635 16.6099 7.90435 16.5388 8.04501 16.3966C8.18567 16.2545 8.256 16.0847 8.256 15.8872C8.256 15.6898 8.18567 15.52 8.04501 15.3778L5.1381 12.4399Z" fill="white"/>
<rect x="20.0833" y="18" width="8.34" height="1.39" rx="0.695" transform="rotate(180 20.0833 18)" fill="white"/>
<rect x="20.0833" y="13.1348" width="11.12" height="1.39" rx="0.695" transform="rotate(180 20.0833 13.1348)" fill="white"/>
<rect x="20.0833" y="8.27002" width="8.34" height="1.39" rx="0.695" transform="rotate(180 20.0833 8.27002)" fill="white"/>
</svg>
