<svg width="704" height="184" viewBox="0 0 704 184" fill="none" xmlns="http://www.w3.org/2000/svg">
<path d="M352.761 145.482C392.106 145.482 424.002 113.586 424.002 74.2411C424.002 34.8957 392.106 3 352.761 3C313.415 3 281.52 34.8957 281.52 74.2411C281.52 113.586 313.415 145.482 352.761 145.482Z" fill="url(#paint0_linear_1553_104141)"/>
<path d="M332.2 160.433L325.777 160.392C321.93 160.879 318.59 157.057 318.59 152.167V34.4689C318.59 29.5995 321.901 25.7845 325.735 26.2389H333.68C337.039 26.6367 385.214 36.5402 385.214 40.8078V145.386C385.214 149.631 335.54 160.009 332.2 160.433Z" fill="#525093"/>
<path d="M387.278 153.61L333.727 160.39C329.879 160.877 326.539 157.055 326.539 152.165V34.4689C326.539 29.5995 329.85 25.7845 333.684 26.2389L387.235 32.5777C390.594 32.9755 393.163 36.5419 393.163 40.8078V145.386C393.163 149.631 390.62 153.187 387.278 153.61Z" fill="#8C65F6"/>
<path d="M389.944 42.7109V137.324C389.944 141.166 387.697 144.382 384.745 144.765L357.877 148.249L337.443 150.9C334.045 151.34 331.094 147.884 331.094 143.458V36.9756C331.094 32.5691 334.019 29.1194 337.405 29.5292L373.914 33.9562L384.707 35.2645C387.265 35.5748 389.304 38.0181 389.817 41.1609C389.901 41.6616 389.944 42.1811 389.944 42.7109Z" fill="#90AEF5"/>
<path d="M333.068 160.498C331.722 160.498 330.402 159.979 329.292 159.001C327.523 157.441 326.465 154.886 326.465 152.163V34.4691C326.465 31.76 327.514 29.2121 329.27 27.6502C330.551 26.5117 332.12 25.987 333.685 26.1722L333.67 26.3059C332.144 26.1259 330.612 26.6386 329.361 27.7513C327.632 29.2876 326.6 31.7995 326.6 34.4691V152.165C326.6 154.849 327.639 157.367 329.381 158.902C330.642 160.013 332.18 160.517 333.712 160.323L333.73 160.457C333.508 160.484 333.287 160.498 333.068 160.498Z" fill="#8C65F6"/>
<path d="M373.914 33.9562L331.094 67.4181V36.9756C331.094 32.5691 334.019 29.1194 337.405 29.5292L373.914 33.9562Z" fill="#B9D0FA"/>
<path d="M389.942 42.7109V74.2747L331.094 94.2291V80.1335L389.817 41.1592C389.899 41.6616 389.942 42.1811 389.942 42.7109Z" fill="#B9D0FA"/>
<path d="M284.013 51.4605C284.091 51.6097 284.256 51.692 284.422 51.6662L289.168 50.9307C290.641 52.623 292.393 54.0924 294.384 55.2583L294.54 60.0557C294.545 60.2238 294.657 60.3695 294.818 60.4192L300.322 62.1201C300.483 62.1698 300.658 62.1115 300.757 61.9761L303.591 58.1028C305.894 58.2623 308.169 58.0377 310.34 57.4701L313.845 60.7536C313.968 60.8684 314.15 60.8924 314.299 60.8153L319.393 58.1251C319.542 58.0462 319.625 57.8816 319.599 57.7153L318.863 52.9693C320.556 51.4982 322.025 49.7442 323.191 47.7536L327.988 47.5975C328.156 47.5924 328.302 47.4809 328.352 47.3198L330.053 41.816C330.102 41.6548 330.044 41.4799 329.909 41.3804L326.035 38.5462C326.195 36.2435 325.97 33.9683 325.403 31.7976L328.686 28.293C328.801 28.1696 328.825 27.9878 328.748 27.8386L326.058 22.7446C325.979 22.5954 325.814 22.5131 325.648 22.5388L320.902 23.2744C319.431 21.5821 317.677 20.1127 315.686 18.9468L315.53 14.1494C315.525 13.9813 315.413 13.8356 315.252 13.7859L309.748 12.085C309.587 12.0353 309.412 12.0936 309.313 12.229L306.479 16.1023C304.176 15.9428 301.901 16.1674 299.73 16.735L296.226 13.4515C296.102 13.3367 295.92 13.3127 295.771 13.3898L290.677 16.08C290.528 16.1589 290.446 16.3235 290.471 16.4898L291.207 21.2358C289.515 22.7086 288.045 24.4609 286.879 26.4515L282.082 26.6076C281.914 26.6127 281.768 26.7242 281.718 26.8853L280.018 32.3892C279.968 32.5503 280.026 32.7252 280.162 32.8247L284.035 35.6589C283.875 37.9616 284.1 40.2368 284.668 42.4075L281.384 45.9121C281.269 46.0355 281.245 46.2173 281.322 46.3665L284.013 51.4605Z" fill="#DC3662"/>
<path d="M308.774 41.248C308.773 41.2497 308.771 41.2497 308.771 41.2514C307.662 42.2493 306.232 42.7568 304.742 42.6779C303.252 42.6008 301.882 41.9458 300.884 40.8382C299.886 39.7288 299.378 38.2989 299.457 36.8089C299.618 33.7329 302.252 31.3634 305.326 31.5245C306.816 31.6017 308.186 32.2567 309.184 33.3643C310.182 34.4736 310.689 35.9036 310.611 37.3936C310.532 38.8818 309.88 40.2501 308.774 41.248ZM301.921 33.6523C301 34.4822 300.459 35.6207 300.393 36.8586C300.328 38.0983 300.75 39.2882 301.58 40.2106C302.41 41.1331 303.55 41.6766 304.79 41.7418C306.029 41.8069 307.219 41.3851 308.142 40.5553C308.143 40.5535 308.143 40.5535 308.145 40.5518C309.066 39.722 309.608 38.5835 309.673 37.3455C309.738 36.1059 309.316 34.916 308.486 33.9935C307.656 33.0711 306.516 32.5276 305.277 32.4624C304.037 32.3973 302.847 32.819 301.924 33.6489C301.923 33.6506 301.921 33.6523 301.921 33.6523Z" fill="#FF7162"/>
<path d="M314.781 47.6893C311.141 50.9727 305.913 52.317 300.898 50.7687C299.919 50.4669 298.972 50.0606 298.086 49.5616L298.545 48.7438C299.373 49.2084 300.258 49.589 301.174 49.8719C306.732 51.5883 312.577 49.5016 315.885 45.0968C315.892 45.0883 315.897 45.0797 315.904 45.0728C315.911 45.0642 315.916 45.0557 315.923 45.0471C316.807 43.8572 317.509 42.4992 317.972 41.0024C319.031 37.5749 318.692 33.94 317.017 30.768C316.485 29.7633 315.84 28.8425 315.098 28.0195C313.498 26.2467 311.444 24.9299 309.102 24.2063C302.026 22.0202 294.49 25.9998 292.304 33.0759C291.586 35.4026 291.51 37.875 292.088 40.2274L291.176 40.4503C290.559 37.9333 290.639 35.2877 291.407 32.7981C293.746 25.2282 301.808 20.9709 309.378 23.3096C311.883 24.0829 314.079 25.4922 315.792 27.3886C316.586 28.2682 317.277 29.254 317.845 30.3291C319.636 33.724 320 37.6127 318.868 41.2802C318.08 43.8349 316.638 46.0141 314.781 47.6893Z" fill="#FF7162"/>
<path d="M331.21 48.5398C331.151 48.5913 331.133 48.6736 331.162 48.7456L332.007 50.7911C331.409 51.6346 330.942 52.5794 330.635 53.5996L328.504 54.1911C328.429 54.2117 328.375 54.2785 328.37 54.3557L328.207 57.0064C328.202 57.0836 328.247 57.1556 328.319 57.1848L330.363 58.0335C330.541 59.0828 330.891 60.0773 331.381 60.9877L330.292 62.9149C330.255 62.9818 330.263 63.0675 330.315 63.1241L332.074 65.113C332.125 65.1713 332.208 65.1902 332.28 65.161L334.325 64.3157C335.169 64.9141 336.113 65.3805 337.134 65.6874L337.725 67.8186C337.746 67.8941 337.813 67.9472 337.89 67.9524L340.54 68.1153C340.618 68.1204 340.69 68.0758 340.719 68.0038L341.567 65.96C342.617 65.7817 343.611 65.4319 344.522 64.9416L346.449 66.032C346.516 66.0698 346.602 66.0612 346.658 66.0097L348.647 64.2506C348.705 64.1991 348.724 64.1168 348.695 64.0448L347.85 61.9993C348.448 61.1557 348.914 60.211 349.221 59.1908L351.353 58.5993C351.428 58.5787 351.481 58.5119 351.485 58.4347L351.648 55.7839C351.653 55.7068 351.608 55.6348 351.536 55.6056L349.492 54.7569C349.314 53.7076 348.964 52.7131 348.474 51.8027L349.563 49.8755C349.6 49.8086 349.592 49.7229 349.54 49.6646L347.781 47.6757C347.73 47.6174 347.647 47.5985 347.575 47.6277L345.53 48.473C344.686 47.8746 343.742 47.4082 342.721 47.1013L342.13 44.97C342.109 44.8946 342.042 44.8415 341.965 44.838L339.315 44.6751C339.237 44.67 339.165 44.7146 339.136 44.7866L338.287 46.8304C337.238 47.0087 336.244 47.3585 335.333 47.8488L333.406 46.7601C333.339 46.7224 333.253 46.7309 333.195 46.7824L331.21 48.5398Z" fill="#DC3662"/>
<path d="M338.396 58.6432L338.395 58.6415C337.795 58.2317 337.39 57.611 337.255 56.8977C337.121 56.1827 337.272 55.4592 337.681 54.8574C338.091 54.2573 338.712 53.8526 339.425 53.7172C340.9 53.4394 342.326 54.4133 342.604 55.8895C342.738 56.6045 342.587 57.3281 342.177 57.9299C341.767 58.53 341.147 58.9346 340.432 59.0701C339.72 59.2038 338.997 59.053 338.396 58.6432ZM341.052 54.7476C340.631 54.4596 340.101 54.3327 339.561 54.4356C339.038 54.5333 338.583 54.8299 338.283 55.2706C337.983 55.7112 337.872 56.241 337.969 56.764C338.067 57.2869 338.364 57.7413 338.804 58.0414C338.804 58.0414 338.806 58.0413 338.806 58.0431C339.245 58.3431 339.775 58.4528 340.298 58.3551C340.821 58.2574 341.275 57.9608 341.575 57.5201C341.875 57.0812 341.987 56.5497 341.889 56.0267C341.788 55.4849 341.476 55.0357 341.052 54.7476Z" fill="#FF7162"/>
<path d="M336.166 62.0331C334.258 60.7317 333.06 58.4874 333.212 56.0183C333.238 55.5914 333.305 55.1662 333.409 54.7547C333.423 54.7015 333.437 54.6484 333.452 54.597L334.155 54.7941C334.04 55.2056 333.968 55.6326 333.941 56.0629C333.912 56.5413 333.939 57.0094 334.016 57.4603C334.016 57.462 334.016 57.462 334.016 57.4637C334.016 57.4655 334.016 57.4689 334.018 57.4706C334.37 59.4835 335.724 61.181 337.576 61.98C338.056 62.1874 338.567 62.3349 339.104 62.412C339.121 62.4138 339.138 62.4172 339.155 62.4189C339.169 62.4206 339.182 62.4223 339.198 62.424C339.234 62.4292 339.27 62.4326 339.306 62.4378C339.404 62.448 339.503 62.4566 339.603 62.4635C341.214 62.5629 342.768 62.028 343.976 60.9581C344.359 60.6186 344.693 60.2397 344.974 59.8282C345.58 58.94 345.938 57.9027 346.005 56.8019C346.104 55.1902 345.569 53.6368 344.499 52.428C343.429 51.2192 341.953 50.4991 340.343 50.3996C339.249 50.3328 338.161 50.5625 337.194 51.0649L336.857 50.4168C337.941 49.8544 339.162 49.5955 340.388 49.6709C342.193 49.7807 343.848 50.5883 345.046 51.9445C346.245 53.299 346.843 55.041 346.733 56.8465C346.658 58.0793 346.257 59.2435 345.58 60.2379C345.266 60.6992 344.89 61.1244 344.462 61.505C343.107 62.7035 341.365 63.3019 339.56 63.1922C338.299 63.115 337.14 62.6967 336.166 62.0331Z" fill="#FF7162"/>
<path d="M365.695 15.3809C365.64 15.278 365.527 15.2214 365.412 15.2386L362.132 15.7547C361.112 14.587 359.898 13.5737 358.519 12.7713L358.405 9.45527C358.401 9.33868 358.322 9.23752 358.213 9.20323L354.404 8.03731C354.293 8.00302 354.173 8.04417 354.104 8.13676L352.148 10.8201C350.555 10.7138 348.983 10.8732 347.483 11.2693L345.055 9.00434C344.969 8.92547 344.844 8.90832 344.741 8.96319L341.223 10.8321C341.12 10.887 341.063 11.0001 341.08 11.115L341.597 14.395C340.429 15.4152 339.416 16.6291 338.613 18.0076L335.297 18.1225C335.181 18.1259 335.079 18.2031 335.045 18.3145L333.879 22.1226C333.845 22.2341 333.886 22.3541 333.98 22.4227L336.664 24.3756C336.557 25.9685 336.717 27.5407 337.111 29.041L334.846 31.4689C334.767 31.5546 334.75 31.6798 334.805 31.7826L336.672 35.301C336.727 35.4038 336.84 35.4604 336.955 35.4433L340.235 34.9272C341.255 36.0948 342.469 37.1081 343.848 37.9106L343.963 41.2266C343.966 41.3432 344.045 41.4443 344.155 41.4786L347.963 42.6445C348.074 42.6788 348.194 42.6377 348.263 42.5434L350.216 39.86C351.809 39.9664 353.381 39.8069 354.881 39.4108L357.309 41.6758C357.395 41.7547 357.52 41.7718 357.623 41.7169L361.141 39.8498C361.244 39.7949 361.301 39.6817 361.283 39.5669L360.767 36.2868C361.935 35.2667 362.948 34.0527 363.751 32.6725L367.067 32.5576C367.183 32.5542 367.284 32.477 367.319 32.3656L368.485 28.5575C368.519 28.446 368.478 28.326 368.385 28.2574L365.702 26.3045C365.808 24.7117 365.649 23.1394 365.253 21.6391L367.518 19.2113C367.597 19.1255 367.614 19.0004 367.559 18.8975L365.695 15.3809Z" fill="#DC3662"/>
<path d="M349.154 28.6673C348.839 28.4753 348.551 28.2352 348.295 27.9541C347.597 27.1825 347.243 26.1863 347.294 25.1473C347.345 24.1082 347.8 23.1532 348.57 22.4554C349.341 21.7575 350.337 21.4026 351.376 21.454C352.415 21.5055 353.37 21.9581 354.068 22.7297C354.766 23.5013 355.121 24.4974 355.07 25.5365C355.018 26.5755 354.564 27.5305 353.794 28.2284C353.022 28.9262 352.026 29.2811 350.987 29.2297C350.329 29.1971 349.701 29.0017 349.154 28.6673ZM352.839 22.6251C352.391 22.3508 351.88 22.193 351.34 22.1656C350.492 22.1227 349.677 22.4142 349.048 22.9835C348.419 23.5527 348.048 24.3346 348.006 25.1833C347.963 26.032 348.254 26.8464 348.823 27.4757C349.393 28.1066 350.174 28.4753 351.023 28.5182C351.872 28.561 352.686 28.2695 353.316 27.7003C353.945 27.131 354.315 26.3492 354.358 25.5005C354.401 24.6518 354.109 23.8373 353.54 23.2081C353.333 22.9783 353.096 22.7829 352.839 22.6251ZM351.359 21.8107L351.361 21.8124L351.359 21.8107Z" fill="#FF7162"/>
<path d="M345.908 33.8915C342.121 31.5751 340.219 26.9046 341.579 22.4689C341.829 21.6511 342.178 20.8881 342.604 20.1885C344.921 16.401 349.591 14.4995 354.029 15.8575C354.108 15.8815 354.188 15.9072 354.267 15.9346C354.8 16.113 355.318 16.3341 355.808 16.5965C355.867 16.6273 355.923 16.6582 355.98 16.6891L355.632 17.3114C355.061 16.9925 354.451 16.7319 353.82 16.5382C353.814 16.5365 353.808 16.5347 353.802 16.533C348.928 15.0516 343.755 17.8035 342.262 22.6764C340.766 27.5561 343.52 32.7393 348.4 34.2344C352.518 35.4964 356.856 33.7303 359.006 30.2137C359.402 29.5639 359.725 28.8558 359.958 28.0962C360.45 26.4913 360.496 24.7888 360.095 23.1685L360.786 22.997C361.218 24.7425 361.167 26.5771 360.638 28.3037C360.388 29.1215 360.04 29.8845 359.613 30.5841C357.297 34.3716 352.626 36.2731 348.189 34.9151C347.371 34.6665 346.608 34.3202 345.908 33.8915Z" fill="#FF7162"/>
<path d="M294.991 168.062L294.448 170.207C293.517 173.888 294.774 177.382 297.255 178.01L300.205 178.757C302.688 179.385 305.455 176.911 306.386 173.23L306.93 171.085C306.966 170.942 306.999 170.8 307.029 170.656L320.381 106.361L313.951 104.734L295.108 167.64C295.067 167.779 295.027 167.921 294.991 168.062ZM298.023 168.65C298.724 165.879 300.627 163.969 302.275 164.386C303.923 164.802 304.687 167.388 303.986 170.159C303.285 172.93 301.38 174.84 299.734 174.423C298.088 174.006 297.321 171.422 298.023 168.65Z" fill="#FF7162"/>
<path d="M316.216 82.1777L313.065 94.6256C312.84 95.512 313.041 96.4516 313.605 97.17L316.503 100.853C317.329 101.904 318.761 102.266 319.988 101.736L324.29 99.8739C325.129 99.5104 325.753 98.7783 325.977 97.8919L329.129 85.444C329.604 83.5665 332.086 83.095 333.18 84.693C335.797 88.5182 336.812 93.4905 335.559 98.4423C333.292 107.394 324.753 111.785 316.143 109.606C307.532 107.427 302.11 99.5019 304.375 90.55C305.629 85.5966 308.888 81.7062 313.008 79.5869C314.731 78.7039 316.691 80.3002 316.216 82.1777Z" fill="#FF7162"/>
<path d="M317.384 82.4747L314.233 94.9226C314.008 95.8091 314.209 96.7487 314.773 97.4671L317.671 101.15C318.497 102.201 319.929 102.563 321.156 102.033L325.457 100.171C326.295 99.8075 326.919 99.0754 327.144 98.1889L330.295 85.741C330.77 83.8635 333.253 83.392 334.347 84.99C336.963 88.817 337.98 93.7893 336.727 98.7427C334.46 107.695 325.921 112.086 317.311 109.906C308.7 107.727 303.278 99.8023 305.543 90.8505C306.797 85.897 310.056 82.0066 314.176 79.8874C315.901 79.001 317.859 80.5973 317.384 82.4747Z" fill="#DC3662"/>
<path d="M295.929 168.3L295.385 170.445C294.454 174.126 295.711 177.62 298.192 178.248L301.143 178.995C303.626 179.623 306.393 177.149 307.324 173.468L307.867 171.323C307.903 171.18 307.936 171.038 307.967 170.894L321.318 106.599L314.889 104.972L296.045 167.876C296.004 168.015 295.965 168.157 295.929 168.3ZM298.96 168.886C299.661 166.115 301.565 164.205 303.212 164.622C304.86 165.039 305.625 167.624 304.924 170.395C304.222 173.166 302.317 175.076 300.671 174.659C299.024 174.243 298.259 171.659 298.96 168.886Z" fill="#DC3662"/>
<path d="M362.151 135.672C372.142 135.672 380.24 127.573 380.24 117.583C380.24 107.593 372.142 99.4941 362.151 99.4941C352.161 99.4941 344.062 107.593 344.062 117.583C344.062 127.573 352.161 135.672 362.151 135.672Z" fill="#DC3662"/>
<path d="M369.154 123.562C369.292 123.698 369.367 123.881 369.367 124.075C369.367 124.267 369.29 124.452 369.154 124.588C369.019 124.725 368.835 124.8 368.642 124.8C368.45 124.8 368.265 124.723 368.129 124.588L362.15 118.602L356.172 124.588C356.036 124.725 355.853 124.8 355.659 124.8C355.465 124.8 355.282 124.723 355.146 124.588C355.009 124.452 354.934 124.269 354.934 124.075C354.934 123.883 355.011 123.698 355.146 123.562L361.132 117.583L355.146 111.605C354.963 111.421 354.892 111.155 354.959 110.905C355.026 110.655 355.222 110.459 355.472 110.392C355.722 110.326 355.988 110.398 356.172 110.579L362.15 116.565L368.129 110.579C368.412 110.296 368.87 110.296 369.153 110.579C369.436 110.862 369.436 111.32 369.153 111.603L363.167 117.582L369.154 123.562Z" fill="white"/>
<defs>
<linearGradient id="paint0_linear_1553_104141" x1="352.761" y1="3" x2="352.761" y2="145.482" gradientUnits="userSpaceOnUse">
<stop stop-color="#FF7162"/>
<stop offset="1" stop-color="#FF7162" stop-opacity="0"/>
</linearGradient>
</defs>
</svg>
