<svg width="8" height="8" viewBox="0 0 8 8" fill="none" xmlns="http://www.w3.org/2000/svg">
<path d="M3.51095 8C3.37239 8 3.25624 7.95208 3.16251 7.85625C3.06877 7.76042 3.02191 7.64167 3.02191 7.5V4.5L0.0998472 0.6875C-0.0142638 0.545833 -0.0305655 0.395833 0.0509424 0.2375C0.13245 0.0791666 0.258787 0 0.429954 0H7.57005C7.74121 0 7.86755 0.0791666 7.94906 0.2375C8.03057 0.395833 8.01426 0.545833 7.90015 0.6875L4.9781 4.5V7.5C4.9781 7.64167 4.93123 7.76042 4.83749 7.85625C4.74376 7.95208 4.62761 8 4.48905 8H3.51095Z" fill="white"/>
</svg>
