<svg width="21" height="20" viewBox="0 0 21 20" fill="none" xmlns="http://www.w3.org/2000/svg">
<path d="M12.837 14.5H4.65518C4.43018 14.5 4.24609 14.6687 4.24609 14.875V15.625C4.24609 15.8313 4.43018 16 4.65518 16H12.837C13.062 16 13.2461 15.8313 13.2461 15.625V14.875C13.2461 14.6687 13.062 14.5 12.837 14.5ZM16.8563 6.51484L14.7853 4.61641C14.6268 4.47109 14.366 4.47109 14.2075 4.61641L13.9185 4.88125C13.76 5.02656 13.76 5.26562 13.9185 5.41094L14.8825 6.29453V7.75C14.8825 8.40859 15.4168 8.95234 16.1097 9.04375V12.8125C16.1097 13.1219 15.8336 13.375 15.4961 13.375C15.1586 13.375 14.8825 13.1219 14.8825 12.8125V12.0625C14.8825 10.9234 13.8751 10 12.6325 10H12.4279V5.5C12.4279 4.67266 11.6941 4 10.7915 4H6.70064C5.79808 4 5.06428 4.67266 5.06428 5.5V13.75H12.4279V11.125H12.6325C13.1975 11.125 13.6552 11.5445 13.6552 12.0625V12.7141C13.6552 13.5977 14.3455 14.4016 15.3043 14.493C16.4038 14.5938 17.337 13.8016 17.337 12.8125V7.57656C17.337 7.17813 17.1631 6.79609 16.8563 6.51484ZM10.7915 8.5H6.70064V5.5H10.7915V8.5Z" fill="white"/>
</svg>
