<svg width="25" height="25" viewBox="0 0 25 25" fill="none" xmlns="http://www.w3.org/2000/svg">
<path d="M12.1047 4.77852C12.2691 4.78109 12.4254 4.83555 12.54 4.93008C12.6544 5.02461 12.7177 5.15162 12.7162 5.2833V6.34188C15.7821 6.59321 18.1759 8.67173 18.1759 11.1963V11.6211H18.4658C18.6337 11.6181 18.7957 11.6694 18.9157 11.7635C19.0356 11.8576 19.1033 11.9865 19.1033 12.1211C19.1033 12.2557 19.0356 12.3846 18.9157 12.4787C18.7957 12.5728 18.6335 12.6241 18.4657 12.6211L5.72085 12.6211C5.553 12.6241 5.39085 12.5728 5.27087 12.4787C5.15089 12.3846 5.08325 12.2557 5.08325 12.1211C5.08325 11.9865 5.15089 11.8576 5.27087 11.7635C5.39085 11.6694 5.553 11.6181 5.72085 11.6211H6.01063V11.1963C6.01063 8.67073 8.40179 6.59187 11.4689 6.34188V5.2833C11.4673 5.14815 11.5341 5.01813 11.6538 4.92306C11.7736 4.82797 11.9362 4.77585 12.1047 4.77852ZM12.1219 7.3184C12.1015 7.3193 12.0812 7.3193 12.0609 7.3184C9.38441 7.33101 7.25785 9.04693 7.25785 11.1963V11.6211L16.9288 11.6211V11.1963C16.9288 9.04759 14.7972 7.33212 12.1219 7.3184ZM16.8729 13.5917C17.0393 13.593 17.1982 13.6476 17.3141 13.7433C17.43 13.8391 17.4935 13.968 17.4903 14.1015L17.4903 18.2977C17.4939 18.4321 17.4299 18.5622 17.3126 18.6584C17.1952 18.7546 17.0345 18.8088 16.8668 18.8088C16.6989 18.8088 16.5381 18.7546 16.4208 18.6584C16.3035 18.5622 16.2394 18.4321 16.2432 18.2977L16.2432 14.1015C16.2399 13.9663 16.305 13.8359 16.4236 13.7399C16.5422 13.6438 16.7044 13.5903 16.8729 13.5917ZM12.1051 13.5917C12.2705 13.5943 12.4277 13.6495 12.5423 13.745C12.657 13.8407 12.7196 13.9689 12.7164 14.1015V18.2977C12.72 18.4322 12.656 18.5622 12.5386 18.6584C12.4213 18.7546 12.2606 18.8088 12.0928 18.8088C11.925 18.8088 11.7642 18.7546 11.6469 18.6584C11.5295 18.5622 11.4655 18.4322 11.4693 18.2977V14.1015C11.4659 13.9654 11.5318 13.8343 11.6517 13.7381C11.7717 13.6419 11.9356 13.5891 12.1051 13.5917ZM7.33128 13.5917C7.4969 13.594 7.65432 13.649 7.76929 13.7447C7.88426 13.8403 7.94703 13.9687 7.94369 14.1015V18.2976C7.94745 18.4321 7.88342 18.5622 7.76609 18.6584C7.64876 18.7546 7.488 18.8088 7.32013 18.8088C7.15242 18.8088 6.99166 18.7546 6.87432 18.6584C6.75699 18.5622 6.69296 18.4321 6.69658 18.2976V14.1015C6.69338 13.9656 6.75907 13.8346 6.87877 13.7384C6.99847 13.6422 7.1619 13.5893 7.33128 13.5917ZM18.5258 19.7781C18.745 19.7904 18.9399 19.8944 19.0391 20.0516C19.1383 20.2089 19.1271 20.3964 19.0096 20.5452C18.8921 20.6941 18.6857 20.7826 18.4659 20.7782H5.72111C5.55326 20.7811 5.39125 20.7297 5.27127 20.6356C5.1513 20.5416 5.08379 20.4127 5.08379 20.2782C5.08379 20.1436 5.1513 20.0147 5.27127 19.9206C5.39125 19.8265 5.5534 19.7752 5.72125 19.7782H18.4661C18.486 19.7774 18.5059 19.7773 18.5258 19.7781Z" fill="white" stroke="white" stroke-width="0.5"/>
</svg>
