<svg width="17" height="16" viewBox="0 0 17 16" fill="none" xmlns="http://www.w3.org/2000/svg">
<path d="M4.34148 13.3337C4.10192 13.3337 3.8923 13.2448 3.71262 13.067C3.53295 12.8892 3.44312 12.6818 3.44312 12.4448V3.55588C3.44312 3.31884 3.53295 3.11144 3.71262 2.93366C3.8923 2.75588 4.10192 2.66699 4.34148 2.66699H8.51888V3.55588H4.34148V12.4448H13.3251V8.31144H14.2235V12.4448C14.2235 12.6818 14.1337 12.8892 13.954 13.067C13.7743 13.2448 13.5647 13.3337 13.3251 13.3337H4.34148ZM7.36598 10.0892L6.73712 9.45218L12.6963 3.55588H9.41724V2.66699H14.2235V7.42255H13.3251V4.19292L7.36598 10.0892Z" fill="white"/>
</svg>
