<svg width="145" height="172" viewBox="0 0 145 172" fill="none" xmlns="http://www.w3.org/2000/svg">
<path d="M72.015 144.03C111.788 144.03 144.03 111.788 144.03 72.015C144.03 32.2422 111.788 0 72.015 0C32.2422 0 0 32.2422 0 72.015C0 111.788 32.2422 144.03 72.015 144.03Z" fill="url(#paint0_linear_1561_104520)"/>
<path d="M110.384 154.316C110.384 155.648 109.374 156.778 108.124 156.843L28.6643 160.971C27.2051 161.048 26.0195 159.939 26.0195 158.494V40.6063C26.0195 39.1639 27.2051 38.0648 28.6643 38.1536L29.7299 38.0959L108.126 43.0015C109.376 43.0783 110.387 44.2183 110.387 45.5503V154.316H110.384Z" fill="#2D1EB0"/>
<path d="M111.951 154.261C111.951 155.593 110.94 156.723 109.69 156.788L30.2307 160.916C28.7715 160.993 27.5859 159.884 27.5859 158.439V40.5511C27.5859 39.1087 28.7715 38.0095 30.2307 38.0983L109.69 42.9463C110.94 43.0231 111.951 44.1631 111.951 45.4951V154.261Z" fill="#525093"/>
<path d="M108.211 149.542C108.211 150.721 107.313 151.719 106.202 151.772L34.255 155.139C32.9782 155.199 31.9414 154.22 31.9414 152.953V52.0399C31.9414 50.7727 32.9782 49.7959 34.255 49.8607L106.202 53.4847C107.313 53.5399 108.211 54.5407 108.211 55.7215V149.542Z" fill="#383E4B"/>
<path d="M102.933 69.7399L38.5625 68.1775V59.7439L102.933 61.7503V69.7399Z" fill="#90AEF5"/>
<path d="M102.934 96.1543L38.5664 96.0583V74.5447L102.934 75.7735V96.1543ZM39.7688 94.8583L101.727 95.0119V76.8943L39.7688 75.7735V94.8583Z" fill="#90AEF5"/>
<path d="M53.5393 95.3694H52.1641V75.3174L53.5393 75.339V95.3694Z" fill="#90AEF5"/>
<path d="M102.246 83.4295L52.8516 82.8103V81.6199L102.246 82.2871V83.4295Z" fill="#90AEF5"/>
<path d="M102.246 89.6286L52.8516 89.2734V88.083L102.246 88.4862V89.6286Z" fill="#90AEF5"/>
<path d="M89.6823 95.9695L88.3047 95.9671V75.9895L89.6823 76.0111V95.9695Z" fill="#90AEF5"/>
<path d="M102.934 134.475L38.5664 136.505V114.992L102.934 114.094V134.475ZM39.7688 135.26L101.727 133.369V115.251L39.7688 116.177V135.26Z" fill="#90AEF5"/>
<path d="M53.5393 135.351L52.1641 135.394V115.311L53.5393 115.29V135.351Z" fill="#90AEF5"/>
<path d="M102.246 121.769L52.8516 122.785V121.594L102.246 120.627V121.769Z" fill="#90AEF5"/>
<path d="M102.246 127.969L52.8516 129.248V128.057L102.246 126.829V127.969Z" fill="#90AEF5"/>
<path d="M89.6823 134.729L88.3047 134.768V114.79L89.6823 114.771V134.729Z" fill="#90AEF5"/>
<path d="M102.933 103.004L38.5625 103.287V100.534L102.933 100.395V103.004Z" fill="#90AEF5"/>
<path d="M102.933 109.201L38.5625 109.827V107.074L102.933 106.592V109.201Z" fill="#90AEF5"/>
<path d="M102.933 141.322L38.5625 143.732V140.979L102.933 138.713V141.322Z" fill="#90AEF5"/>
<path opacity="0.8" d="M107.593 134.71C119.086 123.217 119.086 104.582 107.593 93.0889C96.0991 81.5954 77.4644 81.5954 65.971 93.0889C54.4775 104.582 54.4775 123.217 65.971 134.71C77.4644 146.204 96.0991 146.204 107.593 134.71Z" fill="#90AEF5"/>
<path opacity="0.76" d="M63.7233 116.015C62.6961 116.015 61.8633 115.182 61.8633 114.155C61.8633 99.3082 73.9425 87.229 88.7889 87.229C89.8161 87.229 90.6489 88.0618 90.6489 89.089C90.6489 90.1162 89.8161 90.949 88.7889 90.949C75.9945 90.949 65.5833 101.358 65.5833 114.155C65.5833 115.182 64.7481 116.015 63.7233 116.015Z" fill="#B9D0FA"/>
<path d="M86.7819 144.26C70.0419 144.26 56.4219 130.64 56.4219 113.9C56.4219 97.16 70.0419 83.54 86.7819 83.54C103.522 83.54 117.142 97.16 117.142 113.9C117.142 130.64 103.522 144.26 86.7819 144.26ZM86.7819 85.4C71.0667 85.4 58.2819 98.1848 58.2819 113.9C58.2819 129.615 71.0667 142.4 86.7819 142.4C102.497 142.4 115.282 129.615 115.282 113.9C115.282 98.1848 102.497 85.4 86.7819 85.4Z" fill="#CA4C3E"/>
<path d="M113.836 134.987C113.879 134.943 113.927 134.91 113.975 134.874C118.458 129.073 121.129 121.801 121.129 113.9C121.129 94.933 105.753 79.5562 86.7854 79.5562C67.8182 79.5562 52.4414 94.933 52.4414 113.9C52.4414 132.867 67.8182 148.244 86.7854 148.244C94.6502 148.244 101.891 145.59 107.682 141.143L111.654 137.171L113.836 134.987ZM86.7854 143.329C70.5326 143.329 57.3542 130.153 57.3542 113.898C57.3542 97.645 70.5302 84.4666 86.7854 84.4666C103.041 84.4666 116.217 97.6425 116.217 113.898C116.214 130.153 103.038 143.329 86.7854 143.329Z" fill="#FF7162"/>
<path d="M86.7822 148.707C67.5894 148.707 51.9727 133.093 51.9727 113.898C51.9727 94.7049 67.587 79.0881 86.7822 79.0881C105.975 79.0881 121.592 94.7025 121.592 113.898C121.592 121.664 119.084 129.015 114.341 135.155L114.255 135.241C114.209 135.275 114.185 135.291 114.164 135.313L107.962 141.507C101.833 146.219 94.5079 148.707 86.7822 148.707ZM86.7822 80.0217C68.1007 80.0217 52.9039 95.2185 52.9039 113.9C52.9039 132.582 68.1031 147.779 86.7822 147.779C94.2919 147.779 101.41 145.362 107.372 140.79L113.504 134.658C113.547 134.615 113.595 134.576 113.643 134.54C118.234 128.574 120.661 121.439 120.661 113.9C120.661 95.2185 105.461 80.0217 86.7822 80.0217ZM86.7822 143.795C70.2966 143.795 56.8879 130.383 56.8879 113.9C56.8879 97.4169 70.2991 84.0057 86.7822 84.0057C103.265 84.0057 116.677 97.4169 116.677 113.9C116.677 130.383 103.265 143.795 86.7822 143.795ZM86.7822 84.9345C70.8102 84.9345 57.8167 97.9281 57.8167 113.9C57.8167 129.872 70.8102 142.866 86.7822 142.866C102.754 142.866 115.748 129.872 115.748 113.9C115.748 97.9281 102.754 84.9345 86.7822 84.9345Z" fill="#CA4C3E"/>
<path d="M112.984 140.355L111.652 139.023C111.139 138.51 111.139 137.679 111.652 137.166L107.68 141.138L107.616 141.203C107.102 141.716 107.102 142.547 107.616 143.06L109.233 144.678C109.764 143.785 111.324 142.035 112.984 140.355Z" fill="#CA4C3E"/>
<path d="M111.651 137.168C111.137 137.682 111.137 138.512 111.651 139.026L112.983 140.358C114.591 138.733 116.285 137.18 117.236 136.537L115.688 134.989C115.217 134.519 114.485 134.485 113.969 134.876C113.921 134.912 113.873 134.946 113.83 134.989L111.651 137.168Z" fill="#4C65BA"/>
<path d="M111.651 137.168C111.137 137.682 111.137 138.512 111.651 139.026L112.983 140.358C114.591 138.733 116.285 137.18 117.236 136.537L115.688 134.989C115.217 134.519 114.485 134.485 113.969 134.876C113.921 134.912 113.873 134.946 113.83 134.989L111.651 137.168Z" fill="#CA4C3E"/>
<path d="M142.158 160.695L117.973 136.246C117.887 136.158 117.62 136.275 117.241 136.534C116.291 137.18 114.594 138.73 112.988 140.355C111.327 142.035 109.767 143.785 109.235 144.678C109.062 144.968 108.995 145.17 109.069 145.246L133.254 169.695C135.711 172.182 139.698 172.182 142.158 169.695C144.615 167.211 144.615 163.182 142.158 160.695Z" fill="#FF7162"/>
<path opacity="0.14" d="M142.158 160.695L117.973 136.246C117.647 135.918 114.892 138.387 112.525 140.826C110.512 142.902 139.698 172.182 142.158 169.695C144.616 167.211 144.616 163.182 142.158 160.695Z" fill="#3E479B"/>
<path d="M83.6484 122.871V122.245C83.6604 120.097 83.8548 118.386 84.2292 117.109C84.6036 115.832 85.1532 114.802 85.8756 114.018C86.6004 113.233 87.4692 112.52 88.4892 111.882C89.25 111.392 89.9316 110.881 90.5316 110.353C91.1316 109.825 91.6116 109.239 91.9668 108.596C92.322 107.953 92.4996 107.23 92.4996 106.434C92.4996 105.586 92.298 104.845 91.8924 104.206C91.4868 103.568 90.9444 103.078 90.2628 102.735C89.5812 102.392 88.83 102.219 88.0092 102.219C87.2124 102.219 86.4564 102.394 85.746 102.745C85.0356 103.095 84.4524 103.609 83.9964 104.29C83.5428 104.972 83.298 105.814 83.2596 106.82H75.75C75.8124 104.367 76.4004 102.339 77.5164 100.738C78.6324 99.1376 80.1108 97.94 81.9516 97.1504C83.7924 96.3584 85.8228 95.9624 88.0428 95.9624C90.4836 95.9624 92.6436 96.3632 94.5204 97.1672C96.3972 97.9712 97.8708 99.1328 98.9364 100.654C100.004 102.176 100.537 104.01 100.537 106.158C100.537 107.593 100.302 108.867 99.8292 109.976C99.3564 111.087 98.6964 112.069 97.8516 112.921C97.0044 113.773 96.0036 114.543 94.8516 115.23C93.882 115.806 93.0876 116.408 92.4684 117.034C91.8492 117.661 91.3884 118.383 91.0884 119.206C90.7884 120.03 90.6324 121.04 90.618 122.242V122.869H83.6484V122.871ZM87.294 134.65C86.0676 134.65 85.0212 134.218 84.1572 133.352C83.2908 132.488 82.866 131.446 82.878 130.232C82.866 129.03 83.2908 128 84.1572 127.141C85.0212 126.282 86.0676 125.852 87.294 125.852C88.4604 125.852 89.4852 126.282 90.3684 127.141C91.2516 128 91.7004 129.03 91.7124 130.232C91.7004 131.041 91.4892 131.782 91.0764 132.45C90.666 133.119 90.1284 133.652 89.466 134.05C88.8036 134.451 88.0788 134.65 87.294 134.65Z" fill="#383E4B"/>
<defs>
<linearGradient id="paint0_linear_1561_104520" x1="72.015" y1="0" x2="72.015" y2="144.03" gradientUnits="userSpaceOnUse">
<stop stop-color="#DC3662"/>
<stop offset="1" stop-color="#DC3662" stop-opacity="0"/>
</linearGradient>
</defs>
</svg>
