<svg width="16" height="16" viewBox="0 0 16 16" fill="none" xmlns="http://www.w3.org/2000/svg">
<path fill-rule="evenodd" clip-rule="evenodd" d="M4.66838 1.37354H11.335C12.4629 1.39904 13.3574 2.33232 13.335 3.4602V13.2469C13.3378 13.7908 13.0224 14.286 12.5284 14.5135C12.36 14.5868 12.1786 14.6253 11.995 14.6269C11.6708 14.6249 11.3591 14.5012 11.1217 14.2802L8.00171 11.4402L4.88171 14.2802C4.49729 14.6232 3.94963 14.7141 3.47504 14.5135C2.98101 14.286 2.66559 13.7908 2.66838 13.2469V3.4602C2.64604 2.33232 3.54057 1.39904 4.66838 1.37354ZM8.88838 10.4535L12.0017 13.2935V3.4602C12.0208 3.06975 11.7249 2.73536 11.335 2.70687H4.66838C4.27849 2.73536 3.98257 3.06975 4.00171 3.4602V13.2469L7.08838 10.4535C7.59786 9.98743 8.3789 9.98743 8.88838 10.4535Z" fill="white"/>
</svg>
