<svg width="16" height="16" viewBox="0 0 16 16" fill="none" xmlns="http://www.w3.org/2000/svg">
<path fill-rule="evenodd" clip-rule="evenodd" d="M14.6654 12.6668C14.6654 13.7714 13.7699 14.6668 12.6654 14.6668H3.33203C2.22746 14.6668 1.33203 13.7714 1.33203 12.6668V3.3335C1.33203 2.22893 2.22746 1.3335 3.33203 1.3335H12.6654C13.7699 1.3335 14.6654 2.22893 14.6654 3.3335V12.6668ZM11.9454 8.2535C11.9136 8.33533 11.8661 8.41009 11.8054 8.4735L9.1387 11.1402C9.01352 11.2664 8.84312 11.3374 8.66536 11.3374C8.48761 11.3374 8.31721 11.2664 8.19203 11.1402C8.06582 11.015 7.99483 10.8446 7.99483 10.6668C7.99483 10.4891 8.06582 10.3187 8.19203 10.1935L9.72536 8.66683H4.66536C4.29717 8.66683 3.9987 8.36835 3.9987 8.00016C3.9987 7.63197 4.29717 7.3335 4.66536 7.3335H9.72536L8.19203 5.80683C8.02293 5.63772 7.95688 5.39125 8.01878 5.16024C8.08068 4.92924 8.26111 4.74881 8.49211 4.68691C8.72312 4.62501 8.96959 4.69106 9.1387 4.86016L11.8054 7.52683C11.8661 7.59023 11.9136 7.665 11.9454 7.74683C12.012 7.90914 12.012 8.09119 11.9454 8.2535ZM12.6654 2.66683C13.0336 2.66683 13.332 2.96531 13.332 3.3335V12.6668C13.332 13.035 13.0336 13.3335 12.6654 13.3335H3.33203C2.96384 13.3335 2.66536 13.035 2.66536 12.6668V3.3335C2.66536 2.96531 2.96384 2.66683 3.33203 2.66683H12.6654Z" fill="white"/>
</svg>
