<svg width="16" height="16" viewBox="0 0 16 16" fill="none" xmlns="http://www.w3.org/2000/svg">
<path fill-rule="evenodd" clip-rule="evenodd" d="M10.872 9.9335L14.472 13.5268C14.5982 13.652 14.6692 13.8224 14.6692 14.0002C14.6692 14.1779 14.5982 14.3483 14.472 14.4735C14.3469 14.5997 14.1765 14.6707 13.9987 14.6707C13.8209 14.6707 13.6505 14.5997 13.5254 14.4735L9.93203 10.8735C9.00033 11.6048 7.8498 12.0016 6.66536 12.0002C3.71985 12.0002 1.33203 9.61235 1.33203 6.66683C1.33203 3.72131 3.71985 1.3335 6.66536 1.3335C9.61088 1.3335 11.9987 3.72131 11.9987 6.66683C12.0002 7.85127 11.6034 9.0018 10.872 9.9335ZM6.66536 2.66683C4.45623 2.66683 2.66536 4.45769 2.66536 6.66683C2.66536 8.87597 4.45623 10.6668 6.66536 10.6668C8.8745 10.6668 10.6654 8.87597 10.6654 6.66683C10.6654 4.45769 8.8745 2.66683 6.66536 2.66683Z" fill="white"/>
</svg>
