<svg width="16" height="16" viewBox="0 0 16 16" fill="none" xmlns="http://www.w3.org/2000/svg">
<path fill-rule="evenodd" clip-rule="evenodd" d="M3.33203 1.33325H12.6654C13.7699 1.33325 14.6654 2.22868 14.6654 3.33325V12.6666C14.6654 13.7712 13.7699 14.6666 12.6654 14.6666H3.33203C2.22746 14.6666 1.33203 13.7712 1.33203 12.6666V3.33325C1.33203 2.22868 2.22746 1.33325 3.33203 1.33325ZM8.47203 9.81325L11.1387 7.14659C11.3078 6.97867 11.3745 6.73329 11.3136 6.50289C11.2528 6.27248 11.0736 6.09205 10.8436 6.02955C10.6136 5.96706 10.3678 6.032 10.1987 6.19992L7.9987 8.38659L5.80536 6.19992C5.63745 6.03081 5.39207 5.96413 5.16167 6.025C4.93126 6.08587 4.75083 6.26503 4.68833 6.495C4.62584 6.72497 4.69078 6.97081 4.8587 7.13992L7.52536 9.80659C7.65118 9.93138 7.8215 10.0009 7.9987 9.99992C8.17495 10.0027 8.34514 9.93561 8.47203 9.81325Z" fill="white"/>
</svg>
