<svg width="704" height="184" viewBox="0 0 704 184" fill="none" xmlns="http://www.w3.org/2000/svg">
<path d="M352.514 147.028C392.286 147.028 424.528 114.786 424.528 75.0138C424.528 35.2417 392.286 3 352.514 3C312.742 3 280.5 35.2417 280.5 75.0138C280.5 114.786 312.742 147.028 352.514 147.028Z" fill="url(#paint0_linear_1553_103176)"/>
<path d="M374.565 162.14L381.057 162.098C384.947 162.59 388.323 158.727 388.323 153.784V34.8096C388.323 29.8873 384.976 26.031 381.101 26.4903H373.069C369.674 26.8924 320.977 36.9033 320.977 41.2172V146.929C320.977 151.221 371.189 161.712 374.565 162.14Z" fill="#2D1EB0"/>
<path d="M318.198 156.633L372.331 163.486C376.22 163.978 379.596 160.115 379.596 155.172V36.1992C379.596 31.277 376.25 27.4206 372.374 27.8799L318.242 34.2875C314.846 34.6896 312.25 38.2946 312.25 42.6068V148.319C312.25 152.61 314.822 156.205 318.198 156.633Z" fill="#4018E8"/>
<path d="M316.199 43.1423V138.781C316.199 142.665 318.47 145.917 321.454 146.303L348.613 149.825L369.269 152.505C372.705 152.95 375.687 149.456 375.687 144.983V37.3448C375.687 32.8906 372.731 29.4034 369.307 29.8176L332.403 34.2927L321.489 35.6151C318.903 35.9288 316.842 38.3986 316.324 41.5755C316.241 42.0816 316.199 42.6068 316.199 43.1423Z" fill="#90AEF5"/>
<path d="M373.683 162.207C373.461 162.207 373.237 162.194 373.016 162.166L373.033 162.031C374.581 162.227 376.135 161.717 377.411 160.594C379.172 159.043 380.222 156.497 380.222 153.784V34.8114C380.222 32.1111 379.179 29.5737 377.432 28.0208C376.167 26.896 374.619 26.3777 373.076 26.5597L373.061 26.4245C374.643 26.2374 376.227 26.7677 377.524 27.9185C379.3 29.4957 380.359 32.073 380.359 34.8114V153.784C380.359 156.535 379.291 159.119 377.501 160.696C376.378 161.684 375.043 162.207 373.683 162.207Z" fill="#30262A"/>
<path d="M332.402 34.2927L375.687 68.1175V37.3448C375.687 32.8906 372.73 29.4034 369.307 29.8176L332.402 34.2927Z" fill="#B9D0FA"/>
<path d="M316.199 43.1418V75.048L375.686 95.2188V80.9703L316.326 41.5732C316.241 42.0811 316.199 42.6062 316.199 43.1418Z" fill="#B9D0FA"/>
<path d="M346.883 137.11C356.981 137.11 365.168 128.924 365.168 118.825C365.168 108.727 356.981 100.54 346.883 100.54C336.784 100.54 328.598 108.727 328.598 118.825C328.598 128.924 336.784 137.11 346.883 137.11Z" fill="#15D7AA"/>
<path d="M356.602 112.524L343.586 126.54C343.397 126.743 343.132 126.859 342.855 126.861C342.588 126.862 342.333 126.758 342.144 126.569L337.139 121.564C336.745 121.17 336.745 120.534 337.139 120.143C337.532 119.749 338.168 119.749 338.56 120.143L342.855 124.418L355.14 111.163C355.375 110.872 355.753 110.737 356.119 110.813C356.485 110.889 356.779 111.161 356.88 111.522C356.984 111.882 356.876 112.269 356.602 112.524Z" fill="white"/>
<path d="M330.82 176.015V173.577L366.501 173.355L366.449 176.015H330.82Z" fill="#0CA785"/>
<path d="M332.219 173.506C335.465 170.804 342.873 168.428 355.615 170.052C363.913 171.109 368.248 174.319 365.853 177.113C362.941 180.51 354.469 181.716 341.987 180.591C333.399 179.818 328.16 176.884 332.219 173.506Z" fill="#0CA785"/>
<path d="M332.219 171.159C335.465 168.457 342.873 166.081 355.615 167.705C363.913 168.762 368.248 171.972 365.853 174.766C362.941 178.163 354.469 179.369 341.987 178.245C333.399 177.472 328.16 174.537 332.219 171.159Z" fill="#15D7AA"/>
<path d="M350.161 178.088C347.992 178.088 345.607 177.972 343.02 177.738C337.638 177.253 333.934 175.795 333.356 173.932C333.163 173.313 333.215 172.342 334.56 171.223C336.302 169.772 341.749 166.578 354.669 168.223C359.695 168.862 363.282 170.467 364.031 172.412C364.328 173.183 364.163 173.968 363.551 174.682C362.277 176.169 359.832 177.183 356.286 177.696C354.495 177.958 352.447 178.088 350.161 178.088ZM334.914 171.649C334.023 172.391 333.676 173.103 333.882 173.769C334.387 175.389 337.994 176.731 343.07 177.188C353.61 178.138 360.735 177.121 363.132 174.325C363.61 173.767 363.738 173.192 363.516 172.615C362.851 170.887 359.352 169.38 354.599 168.776C349.668 168.148 345.332 168.178 341.71 168.862C338.025 169.557 335.98 170.762 334.914 171.649Z" fill="#90AEF5"/>
<path d="M372.234 167.702L372.219 165.07L410.723 164.621L410.685 167.491L372.234 167.702Z" fill="#0CA785"/>
<path d="M373.73 164.989C377.217 162.054 385.197 159.446 398.958 161.122C407.921 162.214 412.618 165.652 410.049 168.682C406.928 172.365 397.79 173.717 384.315 172.578C375.04 171.795 369.369 168.658 373.73 164.989Z" fill="#0CA785"/>
<path d="M373.714 162.456C377.202 159.521 385.181 156.913 398.943 158.589C407.905 159.681 412.602 163.119 410.033 166.149C406.912 169.832 397.775 171.184 384.299 170.045C375.025 169.26 369.354 166.123 373.714 162.456Z" fill="#0CA785"/>
<path d="M392.751 169.826C390.509 169.826 388.056 169.714 385.408 169.49C379.598 168.999 375.593 167.447 374.955 165.439C374.744 164.774 374.796 163.725 376.239 162.51C378.111 160.935 383.971 157.455 397.921 159.155C403.35 159.815 407.23 161.528 408.05 163.62C408.376 164.45 408.201 165.299 407.544 166.072C406.178 167.684 403.546 168.793 399.72 169.369C397.698 169.674 395.367 169.826 392.751 169.826ZM390.928 159.301C388.385 159.301 386.049 159.507 383.938 159.918C379.967 160.692 377.768 162.003 376.622 162.968C375.666 163.774 375.295 164.545 375.522 165.261C376.076 167.006 379.976 168.434 385.456 168.897C396.836 169.859 404.52 168.72 407.088 165.689C407.601 165.084 407.736 164.462 407.494 163.84C406.766 161.98 402.979 160.373 397.849 159.749C395.401 159.45 393.091 159.301 390.928 159.301Z" fill="#0CA785"/>
<path d="M372.221 164.803L372.207 162.171L410.711 161.722L410.673 164.592L372.221 164.803Z" fill="#0CA785"/>
<path d="M373.714 162.09C377.201 159.156 385.18 156.548 398.942 158.224C407.904 159.315 412.601 162.754 410.032 165.784C406.911 169.467 397.774 170.819 384.298 169.68C375.026 168.895 369.355 165.759 373.714 162.09Z" fill="#0CA785"/>
<path d="M373.702 159.553C377.189 156.619 385.169 154.011 398.93 155.687C407.892 156.778 412.589 160.217 410.021 163.247C406.899 166.93 397.762 168.282 384.286 167.143C375.014 166.359 369.343 163.222 373.702 159.553Z" fill="#15D7AA"/>
<path d="M392.74 166.926C390.497 166.926 388.044 166.813 385.396 166.59C379.586 166.099 375.581 164.546 374.943 162.539C374.732 161.874 374.784 160.825 376.228 159.61L376.42 159.839L376.228 159.61C378.099 158.035 383.959 154.554 397.91 156.255C403.338 156.915 407.219 158.627 408.038 160.719C408.364 161.549 408.189 162.399 407.532 163.172C406.167 164.784 403.534 165.893 399.709 166.468C397.686 166.773 395.355 166.926 392.74 166.926ZM390.916 156.4C388.374 156.4 386.037 156.606 383.928 157.017C379.957 157.792 377.758 159.102 376.612 160.068C375.656 160.874 375.285 161.645 375.512 162.361C376.066 164.106 379.966 165.534 385.446 165.997C396.826 166.959 404.51 165.82 407.078 162.789C407.591 162.184 407.726 161.562 407.484 160.939C406.756 159.08 402.969 157.473 397.839 156.849C395.39 156.549 393.078 156.4 390.916 156.4Z" fill="#90AEF5"/>
<path d="M375.444 160.787L375.43 158.154L413.934 157.705L413.896 160.577L375.444 160.787Z" fill="#0CA785"/>
<path d="M376.941 158.073C380.428 155.138 388.408 152.53 402.169 154.206C411.132 155.298 415.828 158.737 413.26 161.766C410.138 165.449 401.001 166.801 387.526 165.662C378.251 164.879 372.58 161.742 376.941 158.073Z" fill="#0CA785"/>
<path d="M376.925 155.537C380.413 152.602 388.392 149.994 402.154 151.67C411.116 152.762 415.813 156.2 413.244 159.23C410.123 162.913 400.985 164.265 387.51 163.126C378.236 162.343 372.565 159.206 376.925 155.537Z" fill="#15D7AA"/>
<path d="M395.958 162.91C393.716 162.91 391.263 162.798 388.615 162.574C382.805 162.083 378.8 160.531 378.162 158.523C377.951 157.858 378.003 156.809 379.446 155.594C381.318 154.019 387.18 150.539 401.128 152.239C406.557 152.899 410.437 154.612 411.257 156.704C411.583 157.534 411.408 158.383 410.751 159.156C409.385 160.768 406.753 161.877 402.927 162.453C400.905 162.758 398.574 162.91 395.958 162.91ZM379.829 156.052C378.873 156.858 378.502 157.629 378.729 158.345C379.283 160.09 383.183 161.518 388.663 161.981C400.043 162.943 407.727 161.804 410.295 158.773C410.808 158.168 410.943 157.546 410.701 156.924C409.973 155.064 406.186 153.457 401.056 152.833C395.731 152.185 391.05 152.242 387.145 153.003C383.174 153.776 380.975 155.088 379.829 156.052Z" fill="#90AEF5"/>
<path d="M372.627 155.858L372.613 153.227L411.118 152.776L411.078 155.648L372.627 155.858Z" fill="#0CA785"/>
<path d="M374.124 153.142C377.612 150.208 385.591 147.599 399.353 149.275C408.315 150.367 413.012 153.806 410.443 156.835C407.322 160.518 398.184 161.87 384.709 160.732C375.436 159.948 369.764 156.811 374.124 153.142Z" fill="#0CA785"/>
<path d="M374.105 150.609C377.592 147.675 385.572 145.066 399.333 146.742C408.295 147.834 412.992 151.273 410.424 154.302C407.302 157.985 398.165 159.337 384.689 158.198C375.417 157.413 369.744 154.276 374.105 150.609Z" fill="#15D7AA"/>
<path d="M393.146 157.98C390.903 157.98 388.451 157.868 385.802 157.644C379.993 157.154 375.987 155.601 375.349 153.594C375.138 152.928 375.19 151.88 376.634 150.665L376.826 150.893L376.634 150.665C378.506 149.089 384.366 145.609 398.316 147.309C403.744 147.97 407.625 149.682 408.445 151.774C408.771 152.604 408.595 153.453 407.939 154.226C406.573 155.838 403.94 156.948 400.115 157.523C398.092 157.828 395.763 157.98 393.146 157.98ZM391.323 147.455C388.78 147.455 386.444 147.661 384.334 148.072C380.364 148.847 378.164 150.157 377.019 151.122C376.062 151.928 375.691 152.699 375.918 153.415C376.473 155.161 380.372 156.589 385.853 157.052C397.233 158.013 404.916 156.875 407.484 153.843C407.998 153.238 408.133 152.616 407.89 151.994C407.162 150.134 403.375 148.528 398.245 147.904C395.798 147.604 393.486 147.455 391.323 147.455Z" fill="#90AEF5"/>
<path d="M388.428 155.826L388.691 155.439C388.786 155.299 388.539 155.162 388.123 155.117C387.142 155.013 386.226 154.853 385.554 154.673C385.228 154.586 385.155 154.432 385.379 154.314L385.533 154.233C385.804 154.089 386.393 154.054 386.793 154.157C387.568 154.354 388.566 154.521 389.688 154.597C391.599 154.727 392.757 154.365 393.107 153.85C393.447 153.352 392.995 153.051 391.187 152.645C388.688 152.098 386.254 151.498 386.79 150.711C387.258 150.025 389.022 149.42 392.216 149.602C392.598 149.624 392.932 149.505 393.017 149.38L393.305 148.957C393.407 148.806 393.865 148.709 394.326 148.74C394.787 148.772 395.078 148.919 394.974 149.07L394.735 149.422C394.641 149.558 394.875 149.697 395.282 149.742C396.102 149.831 396.736 149.945 397.237 150.063C397.596 150.148 397.683 150.311 397.44 150.435L397.288 150.513C397.021 150.65 396.461 150.683 396.064 150.591C395.506 150.461 394.703 150.319 393.584 150.243C391.511 150.103 390.447 150.467 390.199 150.829C389.878 151.299 391.299 151.442 393.419 151.926C395.934 152.493 397.321 153.146 397.003 153.964C396.664 154.836 394.719 155.33 391.232 155.271C390.844 155.264 390.514 155.368 390.429 155.493L390.123 155.942C390.02 156.093 389.563 156.19 389.102 156.158L389.076 156.157C388.615 156.124 388.325 155.976 388.428 155.826Z" fill="#EA4747"/>
<path d="M373.022 151.294L373.008 148.663L411.512 148.212L411.472 151.084L373.022 151.294Z" fill="#0CA785"/>
<path d="M374.519 148.58C378.006 145.645 385.986 143.037 399.747 144.713C408.709 145.805 413.406 149.243 410.838 152.273C407.716 155.956 398.579 157.308 385.103 156.169C375.831 155.386 370.158 152.249 374.519 148.58Z" fill="#0CA785"/>
<path d="M374.499 146.045C377.987 143.111 385.966 140.503 399.728 142.179C408.69 143.271 413.387 146.709 410.818 149.739C407.697 153.422 398.559 154.774 385.084 153.635C375.811 152.85 370.139 149.713 374.499 146.045Z" fill="#15D7AA"/>
<path d="M393.536 153.417C391.294 153.417 388.841 153.304 386.193 153.081C380.383 152.59 376.378 151.037 375.74 149.03C375.529 148.365 375.581 147.316 377.024 146.101C378.896 144.526 384.758 141.046 398.707 142.746C404.135 143.406 408.015 145.119 408.835 147.21C409.161 148.041 408.986 148.89 408.329 149.663C406.963 151.275 404.331 152.384 400.506 152.959C398.483 153.264 396.154 153.417 393.536 153.417ZM377.409 146.559C376.452 147.365 376.082 148.136 376.309 148.852C376.863 150.597 380.763 152.025 386.243 152.488C397.623 153.45 405.307 152.311 407.875 149.28C408.388 148.675 408.523 148.053 408.281 147.431C407.553 145.571 403.766 143.964 398.635 143.34C393.311 142.692 388.63 142.749 384.725 143.51C380.754 144.283 378.555 145.595 377.409 146.559Z" fill="#90AEF5"/>
<path d="M369.303 145.585L369.289 142.954L407.794 142.503L407.754 145.375L369.303 145.585Z" fill="#0CA785"/>
<path d="M370.792 142.871C374.28 139.936 382.259 137.328 396.021 139.004C404.983 140.096 409.68 143.534 407.111 146.564C403.99 150.247 394.852 151.599 381.377 150.46C372.104 149.677 366.432 146.54 370.792 142.871Z" fill="#0CA785"/>
<path d="M370.777 140.335C374.264 137.401 382.244 134.793 396.005 136.469C404.967 137.561 409.664 140.999 407.096 144.029C403.974 147.712 394.837 149.064 381.361 147.925C372.089 147.14 366.416 144.005 370.777 140.335Z" fill="#15D7AA"/>
<path d="M389.814 147.708C387.571 147.708 385.119 147.595 382.47 147.372C376.661 146.881 372.655 145.328 372.017 143.321C371.806 142.656 371.858 141.607 373.302 140.392C375.174 138.817 381.033 135.336 394.984 137.037C400.412 137.697 404.293 139.409 405.113 141.501C405.438 142.331 405.263 143.181 404.607 143.954C403.241 145.566 400.608 146.675 396.783 147.25C394.76 147.557 392.431 147.708 389.814 147.708ZM387.99 137.182C385.448 137.182 383.112 137.388 381.001 137.799C377.03 138.574 374.83 139.884 373.685 140.85C372.728 141.656 372.357 142.427 372.584 143.143C373.139 144.888 377.038 146.316 382.519 146.779C393.899 147.741 401.582 146.602 404.151 143.571C404.664 142.966 404.799 142.344 404.556 141.721C403.828 139.862 400.041 138.255 394.911 137.631C392.466 137.331 390.154 137.182 387.99 137.182Z" fill="#90AEF5"/>
<path d="M375.912 141.77L375.898 139.137L414.403 138.688L414.363 141.559L375.912 141.77Z" fill="#0CA785"/>
<path d="M377.406 139.054C380.893 136.12 388.872 133.511 402.634 135.187C411.596 136.279 416.293 139.718 413.725 142.748C410.603 146.431 401.466 147.782 387.99 146.644C378.718 145.859 373.045 142.723 377.406 139.054Z" fill="#0CA785"/>
<path d="M377.394 136.52C380.881 133.586 388.861 130.977 402.622 132.653C411.584 133.745 416.281 137.184 413.713 140.213C410.591 143.896 401.454 145.248 387.978 144.11C378.706 143.326 373.033 140.189 377.394 136.52Z" fill="#15D7AA"/>
<path d="M396.427 143.894C394.184 143.894 391.732 143.781 389.084 143.557C383.274 143.067 379.269 141.514 378.631 139.507C378.419 138.841 378.471 137.793 379.915 136.578L380.107 136.807L379.915 136.578C381.787 135.002 387.647 131.522 401.597 133.222C407.026 133.883 410.906 135.595 411.726 137.687C412.052 138.517 411.877 139.366 411.22 140.139C409.854 141.751 407.221 142.861 403.396 143.436C401.374 143.741 399.044 143.894 396.427 143.894ZM394.604 133.368C392.061 133.368 389.725 133.574 387.614 133.985C383.643 134.76 381.444 136.07 380.298 137.035C379.341 137.841 378.97 138.613 379.197 139.328C379.752 141.074 383.652 142.502 389.132 142.965C400.512 143.926 408.195 142.788 410.764 139.756C411.277 139.152 411.412 138.529 411.17 137.907C410.442 136.047 406.655 134.441 401.524 133.817C399.079 133.517 396.767 133.368 394.604 133.368Z" fill="#90AEF5"/>
<path d="M345.575 175.758L341.207 174.984L347.96 169.028L352.282 169.794C353.45 170.001 354.324 170.299 354.903 170.689C355.488 171.077 355.759 171.535 355.716 172.062C355.677 172.588 355.306 173.162 354.605 173.781C353.901 174.401 353.065 174.894 352.098 175.257C351.133 175.62 350.093 175.845 348.975 175.933C347.862 176.022 346.729 175.963 345.575 175.758ZM345.845 174.159L347.02 174.367C347.582 174.465 348.114 174.504 348.616 174.479C349.122 174.455 349.611 174.344 350.083 174.148C350.558 173.952 351.029 173.647 351.5 173.233C351.97 172.819 352.23 172.476 352.28 172.205C352.334 171.935 352.209 171.717 351.906 171.548C351.608 171.382 351.162 171.245 350.571 171.141L349.485 170.949L345.845 174.159Z" fill="#403AF4"/>
<path d="M351.981 170.524C351.504 170.337 351.379 169.963 351.705 169.689L352.41 169.093C352.734 168.819 353.384 168.748 353.862 168.933C354.339 169.121 354.464 169.495 354.138 169.769L353.433 170.365C353.109 170.64 352.459 170.711 351.981 170.524Z" fill="#403AF4"/>
<path d="M344.637 176.729C344.16 176.542 344.036 176.168 344.361 175.894L345.067 175.298C345.391 175.024 346.04 174.953 346.519 175.139C346.995 175.326 347.12 175.7 346.794 175.974L346.089 176.57C345.763 176.846 345.113 176.917 344.637 176.729Z" fill="#403AF4"/>
<path d="M391.852 141.269L387.484 140.494L394.237 134.539L398.559 135.305C399.728 135.511 400.601 135.81 401.18 136.199C401.766 136.588 402.036 137.045 401.993 137.572C401.955 138.099 401.584 138.673 400.882 139.291C400.178 139.912 399.343 140.404 398.376 140.768C397.41 141.13 396.37 141.356 395.253 141.444C394.14 141.533 393.006 141.474 391.852 141.269ZM392.122 139.669L393.297 139.877C393.859 139.976 394.391 140.014 394.894 139.99C395.4 139.966 395.889 139.855 396.36 139.659C396.835 139.463 397.306 139.158 397.778 138.744C398.247 138.33 398.507 137.986 398.558 137.716C398.611 137.446 398.487 137.227 398.183 137.059C397.885 136.893 397.44 136.756 396.849 136.652L395.762 136.459L392.122 139.669Z" fill="#403AF4"/>
<path d="M398.25 136.036C397.774 135.849 397.649 135.474 397.975 135.201L398.68 134.604C399.004 134.331 399.654 134.26 400.132 134.445C400.609 134.632 400.733 135.006 400.408 135.28L399.702 135.876C399.378 136.152 398.728 136.223 398.25 136.036Z" fill="#403AF4"/>
<path d="M390.91 142.24C390.434 142.053 390.309 141.679 390.635 141.405L391.34 140.809C391.664 140.535 392.314 140.464 392.792 140.649C393.269 140.836 393.393 141.211 393.068 141.485L392.362 142.081C392.037 142.356 391.387 142.427 390.91 142.24Z" fill="#403AF4"/>
<defs>
<linearGradient id="paint0_linear_1553_103176" x1="352.514" y1="3" x2="352.514" y2="147.028" gradientUnits="userSpaceOnUse">
<stop stop-color="#15D7AA"/>
<stop offset="1" stop-color="#15D7AA" stop-opacity="0"/>
</linearGradient>
</defs>
</svg>
