<svg width="25" height="25" viewBox="0 0 25 25" fill="none" xmlns="http://www.w3.org/2000/svg">
<path fill-rule="evenodd" clip-rule="evenodd" d="M5.08333 11.8929C5.08333 12.3896 5.48594 12.7922 5.98258 12.7922C6.46519 12.7777 6.85024 12.3847 6.85485 11.9019C6.89163 9.81744 8.12602 7.94067 10.0255 7.0813C11.9249 6.22194 14.1495 6.53377 15.7394 7.88227H15.4517C14.955 7.88227 14.5524 8.28487 14.5524 8.78152C14.5524 9.27816 14.955 9.68077 15.4517 9.68077H17.9966C18.4932 9.68077 18.8958 9.27816 18.8958 8.78152V6.23664C18.8958 5.74 18.4932 5.33739 17.9966 5.33739C17.4999 5.33739 17.0973 5.74 17.0973 6.23664V6.63231C14.9977 4.73704 11.9823 4.248 9.39133 5.38253C6.80033 6.51706 5.1146 9.0646 5.08333 11.8929ZM18.2934 12.5314C18.2934 12.0348 18.696 11.6322 19.1927 11.6322C19.6823 11.637 20.0781 12.0328 20.0829 12.5224C20.113 14.4576 19.3531 16.3215 17.9787 17.6841C15.2694 20.3797 10.9252 20.4864 8.08692 17.9269V18.3226C8.08692 18.8192 7.68432 19.2218 7.18767 19.2218C6.69103 19.2218 6.28842 18.8192 6.28842 18.3226V15.7777C6.28842 15.2811 6.69103 14.8784 7.18767 14.8784H9.75953C10.2562 14.8784 10.6588 15.2811 10.6588 15.7777C10.6588 16.2743 10.2562 16.6769 9.75953 16.6769H9.44479C11.0532 18.0166 13.2914 18.3051 15.1869 17.4171C17.0825 16.529 18.2933 14.6247 18.2934 12.5314Z" fill="white"/>
</svg>
