<svg width="151" height="169" viewBox="0 0 151 169" fill="none" xmlns="http://www.w3.org/2000/svg">
<path d="M73.015 142.442C112.788 142.442 145.03 110.555 145.03 71.2209C145.03 31.8867 112.788 0 73.015 0C33.2422 0 1 31.8867 1 71.2209C1 110.555 33.2422 142.442 73.015 142.442Z" fill="url(#paint0_linear_1561_104519)"/>
<path d="M130.076 142.495H33.3258C29.7486 142.495 26.8477 139.626 26.8477 136.089V76.8857C26.8477 73.3479 29.7486 70.479 33.3258 70.479H130.076C133.653 70.479 136.554 73.3479 136.554 76.8857V136.089C136.554 139.626 133.653 142.495 130.076 142.495Z" fill="#90AEF5"/>
<path d="M119.89 49.5508H31.5156V94.1855H119.89V49.5508Z" fill="#0CA785"/>
<path d="M119.422 48.8865H31.0469V93.5212H119.422V48.8865Z" fill="#0CA785"/>
<path d="M118.793 48.3108H30.418V92.9455H118.793V48.3108Z" fill="#0CA785"/>
<path d="M118.187 47.7632H29.8125V92.3979H118.187V47.7632Z" fill="#15D7AA"/>
<path d="M33.2695 51.1121V89.0511H114.73V51.1121H33.2695ZM111.646 86.1099H36.3566V54.0509H111.646V86.1099Z" fill="#0CA785"/>
<path d="M33.2695 51.1121V59.7398C33.8964 59.9192 34.5562 60.0194 35.242 60.0194C39.1679 60.0194 42.3516 56.8709 42.3516 52.9882C42.3516 52.3379 42.255 51.711 42.0877 51.1121H33.2695Z" fill="#0CA785"/>
<path d="M114.729 51.075H106.005C105.824 51.6949 105.723 52.3474 105.723 53.0256C105.723 56.9083 108.906 60.0569 112.832 60.0569C113.49 60.0569 114.124 59.9613 114.729 59.7959V51.075Z" fill="#0CA785"/>
<path d="M114.729 89.0488H106.005C105.824 88.4289 105.723 87.7763 105.723 87.0982C105.723 83.2155 108.906 80.0669 112.832 80.0669C113.49 80.0669 114.124 80.1624 114.729 80.3279V89.0488Z" fill="#0CA785"/>
<path d="M33.2695 89.0116V80.3839C33.8964 80.2045 34.5562 80.1042 35.242 80.1042C39.1679 80.1042 42.3516 83.2528 42.3516 87.1355C42.3516 87.7857 42.255 88.4127 42.0877 89.0116H33.2695Z" fill="#0CA785"/>
<path d="M83.5584 70.0805C83.5584 75.3033 79.279 79.5356 73.998 79.5356C68.717 79.5356 64.4375 75.3033 64.4375 70.0805C64.4375 64.8578 68.717 60.6255 73.998 60.6255C79.279 60.6255 83.5584 64.8578 83.5584 70.0805Z" fill="#0CA785"/>
<path d="M122.905 148.126H33.3258C29.7486 148.126 26.8477 145.257 26.8477 141.719V82.5163C26.8477 78.9785 29.7486 76.1096 33.3258 76.1096H122.905C126.482 76.1096 129.383 78.9785 129.383 82.5163V141.719C129.383 145.257 126.482 148.126 122.905 148.126Z" fill="#4018E8"/>
<path d="M132.431 121.956H100.613C95.1179 121.956 90.6641 117.552 90.6641 112.117C90.6641 106.682 95.1179 102.277 100.613 102.277H132.431V121.956Z" fill="#2D1EB0"/>
<path d="M100.614 119.831C104.921 119.831 108.412 116.378 108.412 112.119C108.412 107.86 104.921 104.407 100.614 104.407C96.3076 104.407 92.8164 107.86 92.8164 112.119C92.8164 116.378 96.3076 119.831 100.614 119.831Z" fill="#B9D0FA"/>
<path d="M133.06 166.681C142.969 165.141 149.739 155.947 148.181 146.148C146.623 136.348 137.328 129.652 127.419 131.193C117.51 132.733 110.739 141.927 112.297 151.726C113.855 161.526 123.151 168.222 133.06 166.681Z" fill="#0CA785"/>
<path d="M126.406 131.304C116.454 132.535 109.394 141.51 110.638 151.354C111.883 161.196 120.958 168.178 130.912 166.948C140.863 165.717 147.923 156.742 146.679 146.898C145.435 137.056 136.36 130.074 126.406 131.304Z" fill="#15D7AA"/>
<path d="M130.74 165.572C121.686 166.691 113.401 160.317 112.269 151.363C111.138 142.409 117.583 134.217 126.637 133.099C135.691 131.98 143.974 138.352 145.105 147.306C146.237 156.26 139.791 164.454 130.74 165.572ZM126.76 134.066C118.246 135.119 112.185 142.822 113.247 151.242C114.31 159.662 122.106 165.656 130.617 164.605C139.132 163.554 145.19 155.847 144.127 147.427C143.062 139.007 135.272 133.015 126.76 134.066Z" fill="#0CA785"/>
<path d="M128.969 157.292H122.672V141.111H128.903C130.585 141.111 132.039 141.435 133.265 142.083C134.495 142.726 135.442 143.654 136.109 144.863C136.78 146.07 137.115 147.515 137.115 149.2C137.115 150.885 136.783 152.335 136.116 153.547C135.449 154.754 134.506 155.679 133.288 156.327C132.072 156.97 130.632 157.292 128.969 157.292ZM127.116 153.563H128.811C129.621 153.563 130.309 153.435 130.88 153.176C131.455 152.918 131.891 152.473 132.19 151.841C132.494 151.209 132.645 150.328 132.645 149.203C132.645 148.075 132.489 147.196 132.181 146.565C131.877 145.933 131.429 145.488 130.837 145.229C130.251 144.97 129.532 144.842 128.681 144.842H127.114V153.563H127.116Z" fill="#0CA785"/>
<path d="M129.393 142.593C128.599 142.593 127.953 141.955 127.953 141.169V139.461C127.953 138.676 128.599 138.037 129.393 138.037C130.187 138.037 130.833 138.676 130.833 139.461V141.169C130.833 141.955 130.187 142.593 129.393 142.593Z" fill="#0CA785"/>
<path d="M129.393 160.366C128.599 160.366 127.953 159.727 127.953 158.942V157.234C127.953 156.448 128.599 155.81 129.393 155.81C130.187 155.81 130.833 156.448 130.833 157.234V158.942C130.833 159.73 130.187 160.366 129.393 160.366Z" fill="#0CA785"/>
<defs>
<linearGradient id="paint0_linear_1561_104519" x1="73.015" y1="0" x2="73.015" y2="142.442" gradientUnits="userSpaceOnUse">
<stop stop-color="#8C65F6"/>
<stop offset="1" stop-color="#8C65F6" stop-opacity="0"/>
</linearGradient>
</defs>
</svg>
