<svg width="25" height="25" viewBox="0 0 25 25" fill="none" xmlns="http://www.w3.org/2000/svg">
<path d="M15.9106 14.5885C16.2439 14.5885 16.5141 14.3183 16.5141 13.9851C16.5141 13.6518 16.2439 13.3816 15.9106 13.3816C15.5774 13.3816 15.3072 13.6518 15.3072 13.9851C15.3072 14.3183 15.5774 14.5885 15.9106 14.5885Z" fill="white"/>
<path fill-rule="evenodd" clip-rule="evenodd" d="M17.1178 7.34723V6.74376C17.1178 5.74386 16.3073 4.93335 15.3074 4.93335L5.04844 4.93335C4.04855 4.93335 3.23804 5.74386 3.23804 6.74376L3.23804 18.8131C3.23804 19.813 4.04855 20.6235 5.04844 20.6235H17.7213C18.7212 20.6235 19.5317 19.813 19.5317 18.8131L19.5317 15.9383C19.902 15.6068 20.1352 15.125 20.1352 14.5889V13.3819C20.1352 12.8458 19.902 12.364 19.5317 12.0325V9.15763C19.5317 8.15774 18.7212 7.34723 17.7213 7.34723H17.1178ZM4.44498 7.45027C4.6337 7.38346 4.83682 7.34723 5.04844 7.34723L15.9109 7.34723V6.74376C15.9109 6.4105 15.6407 6.14029 15.3074 6.14029L5.04844 6.14029C4.71519 6.14029 4.44498 6.4105 4.44498 6.74376V7.45027ZM13.497 13.9853C13.497 15.3185 14.5777 16.3992 15.9109 16.3992H18.3248V18.8131C18.3248 19.1463 18.0546 19.4165 17.7213 19.4165H5.04844C4.71519 19.4165 4.44498 19.1463 4.44498 18.8131L4.44498 9.15757C4.44498 8.82432 4.71519 8.55411 5.04844 8.55411L17.7213 8.55411C18.0546 8.55411 18.3248 8.82432 18.3248 9.15757V11.5715L15.9109 11.5715C14.5777 11.5715 13.497 12.6522 13.497 13.9853ZM15.9109 12.7784C15.2442 12.7784 14.704 13.3187 14.704 13.9853C14.704 14.652 15.2442 15.1923 15.9109 15.1923H18.3248C18.658 15.1923 18.9282 14.9221 18.9282 14.5888V13.3819C18.9282 13.0486 18.658 12.7784 18.3248 12.7784L15.9109 12.7784Z" fill="white"/>
<path fill-rule="evenodd" clip-rule="evenodd" d="M17.2724 6.74363V7.1922H17.721C18.8064 7.1922 19.6863 8.07206 19.6863 9.15751V11.9648C20.058 12.3222 20.2898 12.8251 20.2898 13.3818V14.5887C20.2898 15.1454 20.058 15.6483 19.6863 16.0057V18.813C19.6863 19.8985 18.8064 20.7783 17.721 20.7783H5.04815C3.9627 20.7783 3.08284 19.8985 3.08284 18.813L3.08284 6.74363C3.08284 5.65818 3.9627 4.77832 5.04815 4.77832L15.3071 4.77832C16.3926 4.77832 17.2724 5.65818 17.2724 6.74363ZM19.5314 15.9382V18.813C19.5314 19.8129 18.7209 20.6234 17.721 20.6234H5.04815C4.04825 20.6234 3.23774 19.8129 3.23774 18.813L3.23774 6.74363C3.23774 5.74373 4.04825 4.93322 5.04815 4.93322L15.3071 4.93322C16.307 4.93322 17.1175 5.74373 17.1175 6.74363V7.3471H17.721C18.7209 7.3471 19.5314 8.15761 19.5314 9.15751V12.0323C19.9017 12.3638 20.1349 12.8457 20.1349 13.3818V14.5887C20.1349 15.1248 19.9017 15.6067 19.5314 15.9382ZM4.59958 7.24363C4.74378 7.20995 4.89397 7.1922 5.04815 7.1922L15.7557 7.1922V6.74363C15.7557 6.49592 15.5548 6.29506 15.3071 6.29506L5.04815 6.29506C4.80044 6.29506 4.59958 6.49592 4.59958 6.74363V7.24363ZM15.9106 6.74363C15.9106 6.41037 15.6404 6.14016 15.3071 6.14016L5.04815 6.14016C4.71489 6.14016 4.44468 6.41037 4.44468 6.74363V7.45015C4.49531 7.43222 4.54699 7.41649 4.59958 7.40308C4.74301 7.3665 4.8933 7.3471 5.04815 7.3471L15.9106 7.3471V6.74363ZM15.9106 16.554C14.4919 16.554 13.3418 15.4039 13.3418 13.9852C13.3418 12.5665 14.4919 11.4164 15.9106 11.4164L18.1696 11.4164V9.15745C18.1696 8.90974 17.9687 8.70888 17.721 8.70888L5.04815 8.70888C4.80044 8.70888 4.59958 8.90974 4.59958 9.15745L4.59958 18.813C4.59958 19.0607 4.80044 19.2615 5.04815 19.2615H17.721C17.9687 19.2615 18.1696 19.0607 18.1696 18.813V16.554H15.9106ZM15.9106 12.9332C15.3295 12.9332 14.8586 13.4041 14.8586 13.9852C14.8586 14.5663 15.3295 15.0372 15.9106 15.0372H18.3245C18.5722 15.0372 18.773 14.8364 18.773 14.5887V13.3817C18.773 13.134 18.5722 12.9332 18.3245 12.9332H15.9106ZM15.9106 16.3991C14.5774 16.3991 13.4967 15.3183 13.4967 13.9852C13.4967 12.652 14.5774 11.5713 15.9106 11.5713L18.3245 11.5713V9.15745C18.3245 8.82419 18.0543 8.55398 17.721 8.55398L5.04815 8.55398C4.71489 8.55398 4.44468 8.82419 4.44468 9.15745L4.44468 18.813C4.44468 19.1462 4.71489 19.4164 5.04815 19.4164H17.721C18.0543 19.4164 18.3245 19.1462 18.3245 18.813V16.3991H15.9106ZM14.7037 13.9852C14.7037 13.3186 15.244 12.7783 15.9106 12.7783L18.3245 12.7783C18.6577 12.7783 18.9279 13.0485 18.9279 13.3817V14.5887C18.9279 14.9219 18.6577 15.1921 18.3245 15.1921H15.9106C15.244 15.1921 14.7037 14.6518 14.7037 13.9852Z" fill="white"/>
</svg>
